<svg width="1024" height="1024" viewBox="0 0 1024 1024" fill="none" xmlns="http://www.w3.org/2000/svg">
<path d="M402.352 138.326C404.109 117.374 410.936 97.9427 431.236 88.7802C451.16 79.7872 469.271 92.7487 474.713 111.981C477.423 121.562 477.04 128.386 476.402 138.102C478.18 138.414 481.851 138.946 483.416 139.458C494.175 130.41 513.305 125.541 526.785 122.578C529.36 120.786 531.77 117.306 534.35 115.432C551.155 103.205 566.19 102.977 581.125 117.124C602.375 144.908 599.075 176.791 573.65 200.562C584.08 219.463 592.165 239.567 597.725 260.429C601.565 275.352 603.625 299.835 610.05 312.069C613.625 318.877 633.19 333.271 640.34 340.158C655.625 354.884 665.76 365.834 678.465 382.901C703.46 385.213 709.57 395.231 721.975 416.139C724.23 419.821 728.035 426.404 729.68 430.476C733.14 437.794 736.345 445.233 739.28 452.777C747.01 473.191 752.97 491.929 748.8 513.88C752.145 513.455 795.585 502.725 796.975 501.88C801.515 507.39 801.235 515.965 805.145 518.905C809.945 519.455 814.445 507.325 815.68 503.275C819.87 504.015 824.05 504.815 828.22 505.675C827.98 509.935 828.345 519.83 834.115 519.815C837.89 517.92 838.84 513.89 842.135 510.405C848.965 514.915 859.53 520.96 863.845 528.18C871.71 529.605 879.48 531.165 887.14 533.485C898.88 538.19 903.11 542.14 902.595 555.305C926.735 545.395 947.245 562.435 948.985 586.75C950.72 611.04 941.6 626.67 922.035 639.835C942.04 643.13 995.38 652.37 1000.86 675.355C1002.99 684.75 1001.29 705.505 1001.08 715.85C1000.82 728.59 982.175 737.74 971.885 742.035C961.865 745.48 951.645 748.305 941.28 750.495C935.81 751.635 929.37 752.46 924.32 753.605C901.26 757.435 877.93 759.405 854.555 759.495L854.505 793.35C854.46 812.02 857.59 828.945 832.245 828.715C824.235 828.64 816.87 826.385 812.58 819.18C797.585 834.66 770.775 843.195 750.55 849.76C747.445 850.765 737.98 853.625 734.985 854.21C730.155 869.67 706.915 872.405 695.99 863.085C651.55 870.835 613.11 876.365 567.84 880C520.035 883.72 472.086 885.275 424.14 884.66C358.967 884.055 292.278 879.825 228.007 868.48C199.529 863.45 168.314 856.05 141.662 844.61C130.655 839.8 111.307 829.645 107.367 817.245C99.0392 791.035 143.468 775.185 160.744 768.655L160.452 764.95C154.295 762.375 148.194 759.69 143.226 755.115C120.656 734.315 109.848 633.39 108.604 601.725C107.588 575.89 111.102 535.24 129.034 515.83C131.159 512.87 133.613 510.265 136.119 507.635C146.096 497.432 155.469 493.107 168.38 487.991L160.03 463.207C157.624 456.053 149.781 438.898 159.484 433.755C162.298 432.264 167.292 433.5 170.157 434.625C176.621 431.223 182.581 426.758 189.298 423.194C208.25 430.015 230.508 437.008 247.169 448.581C249.92 450.492 257.009 457.758 259.003 458.656C267.295 455.62 279.135 449.758 287.876 446.125C289.391 444.881 291.111 443.033 292.52 441.607C290.345 440.834 284.789 439.558 282.111 438.749C272.877 435.959 263.972 433.344 254.924 429.943C236.132 425.61 212.636 412.689 200.686 397.448C183.177 375.118 180.071 356.457 180.615 328.99C180.869 316.128 180.788 305.094 182.346 292.284C186.87 255.075 197.5 238.538 225.786 215.891C257.401 188.693 311.673 164.313 350.883 151.047C366.966 145.605 385.666 141.388 402.352 138.326Z" fill="#F9EBC8"/>
<path d="M402.353 138.326C404.11 117.374 410.937 97.9427 431.236 88.7802C451.161 79.7872 469.272 92.7487 474.713 111.981C477.424 121.562 477.04 128.386 476.402 138.102C478.181 138.414 481.851 138.946 483.416 139.458C494.175 130.41 513.306 125.541 526.786 122.578C529.361 120.786 531.771 117.306 534.351 115.432C551.156 103.205 566.191 102.977 581.126 117.124C602.376 144.908 599.076 176.791 573.651 200.562C584.081 219.463 592.166 239.567 597.726 260.429C601.566 275.352 603.626 299.835 610.051 312.069C613.626 318.877 633.191 333.271 640.341 340.158C655.626 354.884 665.761 365.834 678.466 382.901C682.896 389.091 685.976 393.166 687.751 400.571C684.911 408.529 679.691 413.18 672.801 417.8C657.326 428.177 640.406 436.427 623.596 444.391L525.431 491.239C520.966 493.567 514.416 497.206 509.976 499.185C507.481 501.13 505.056 502.405 502.746 504.165C499.09 506.43 487.031 515.14 485.82 519.095L485.953 519.45C478.635 520.125 468.315 522.045 461.163 524.27L458.425 512.715C454.793 495.679 450.263 477.47 446.156 460.473C441.71 452.561 435.301 453.839 427.421 454.61C424.278 449.703 421.234 444.734 418.291 439.706C417.42 438.518 416.413 437.07 415.501 435.951C397.309 436.202 379.185 438.233 361.389 442.013C356.187 443.087 347.027 446.047 342.635 446.773C340.528 446.249 333.974 446.063 331.456 445.956C318.051 445.384 305.735 444.048 292.52 441.607C290.345 440.834 284.79 439.558 282.112 438.749C272.878 435.959 263.972 433.344 254.924 429.943C236.133 425.61 212.636 412.689 200.686 397.448C183.177 375.118 180.072 356.457 180.615 328.99C180.87 316.128 180.789 305.094 182.347 292.284C186.871 255.075 197.501 238.538 225.787 215.891C257.401 188.693 311.673 164.313 350.883 151.047C366.967 145.605 385.667 141.388 402.353 138.326Z" fill="#D38A39"/>
<path d="M254.924 429.942C236.133 425.609 212.636 412.688 200.686 397.448C183.177 375.118 180.072 356.456 180.615 328.99C180.87 316.127 180.789 305.093 182.347 292.283C186.871 255.075 197.501 238.538 225.787 215.891C233.306 224.074 242.232 224.013 252.573 225.466C277.919 229.097 297.484 229.526 313.599 251.693C332.183 277.257 328.841 299.991 329.203 329.092C329.6 361.017 333.989 389.481 307.762 413.476C297.064 423.263 284.014 428.262 269.527 429.315C266.283 429.555 257.224 429.566 254.924 429.942Z" fill="#8F5927"/>
<path d="M203.168 272.452C216.226 272.129 217.831 295.842 236.058 300.99C247.036 296.075 256.263 287.825 267.507 281.901C276.812 275.516 289.871 281.691 284.283 293.127C278.87 304.204 253.09 312.52 242.584 316.028C240.821 339.588 241.379 354.581 242.517 378.462C249.511 385.334 253.021 387.906 261.086 393.373C263.761 395.233 269.152 397.984 270.354 400.919C271.692 403.999 268.392 407.81 265.411 407.764C255.026 407.604 242.84 395.529 234.855 389.82C229.546 395.267 216.094 407.24 208.072 401.292C206.336 400.462 204.566 394.496 206.505 393.511C214.968 389.211 221.526 385.172 228.403 378.471C227.045 360.121 227.588 333.341 227.572 314.369C217.433 308.339 182.582 284.553 203.168 272.452Z" fill="#69421C"/>
<path d="M526.784 122.579C529.359 120.787 531.769 117.307 534.349 115.433C551.154 103.206 566.189 102.978 581.124 117.125C602.374 144.909 599.074 176.792 573.649 200.563C563.694 207.646 554.724 208.349 542.959 207.148C541.409 204.365 539.779 200.788 538.194 197.81C536.614 194.783 533.959 190.715 532.129 187.712C524.059 177.553 516.799 171.206 506.529 163.55C508.359 158.552 510.199 153.112 512.374 148.293C516.559 138.254 521.284 131.551 526.784 122.579Z" fill="#8F5927"/>
<path d="M532.131 187.71C533.866 182.446 553.896 130.752 563.161 153.577C568.316 166.272 557.866 191.876 542.401 196.621C541.006 197.042 539.601 197.438 538.196 197.809C536.616 194.782 533.961 190.714 532.131 187.71Z" fill="#69421C"/>
<path d="M402.352 138.326C404.109 117.374 410.936 97.9427 431.235 88.7802C451.16 79.7872 469.271 92.7487 474.712 111.981C477.423 121.562 477.039 128.386 476.401 138.102C467.337 136.636 456.081 135.944 446.971 135.569L437.39 135.689C425.398 136.265 414.273 136.877 402.352 138.326Z" fill="#8F5927"/>
<path d="M437.39 135.689L435.866 135.13C435.178 130.914 441.449 118.24 446.574 117.551C451.149 119.732 448 131.449 446.972 135.569L437.39 135.689Z" fill="#69421C"/>
<path d="M458.424 512.715C483.482 500.28 497.774 483.947 516.164 463.582C519.419 459.977 526.624 450.755 530.249 448.48C531.794 448.576 531.129 448.286 532.244 449.492C532.569 453.108 511.894 491.108 509.974 499.184C507.479 501.129 505.054 502.404 502.744 504.164C499.088 506.429 487.03 515.139 485.818 519.094L485.951 519.449C478.633 520.124 468.313 522.045 461.161 524.27L458.424 512.715Z" fill="#B7732C"/>
<path d="M418.289 439.706C434.14 436.748 449.582 433.183 464.889 428.125C467.298 427.328 469.893 426.528 472.41 426.232L473.262 426.921C473.038 430.708 450.21 456.205 446.154 460.474C441.709 452.562 435.299 453.839 427.419 454.61C424.277 449.704 421.233 444.735 418.289 439.706Z" fill="#B7732C"/>
<path d="M483.416 139.458C494.175 130.41 513.305 125.541 526.785 122.578C521.285 131.55 516.561 138.253 512.376 148.292C502.956 144.627 493.276 141.674 483.416 139.458Z" fill="#7F8F47"/>
<path d="M451.5 244.687C470.269 242.23 489.903 257.431 493.664 276.04C493.958 278.47 492.734 280.833 491.14 282.56C482.353 292.075 477.46 271.293 471.679 266.816C464.622 261.351 462.547 259.916 453.931 259.996C430.807 264.001 429.339 283.885 422.58 285.414C420.497 285.885 416.78 285.723 415.006 284.356C413.608 283.278 412.974 281.974 412.811 280.251C412.264 274.478 417.261 266.97 420.688 262.582C428.524 252.549 438.815 246.258 451.5 244.687Z" fill="#38271B"/>
<path d="M796.976 501.881C801.516 507.391 801.236 515.966 805.146 518.906C809.946 519.456 814.446 507.326 815.681 503.276C819.871 504.016 824.051 504.816 828.221 505.676C827.981 509.936 828.346 519.831 834.116 519.816C837.891 517.921 838.841 513.891 842.136 510.406C848.966 514.916 859.531 520.961 863.846 528.181C871.711 529.606 879.481 531.166 887.141 533.486C898.881 538.191 903.111 542.141 902.596 555.306C926.736 545.396 947.246 562.436 948.986 586.751C950.721 611.041 941.601 626.671 922.036 639.836C942.041 643.131 995.381 652.371 1000.86 675.356C1002.99 684.751 1001.29 705.506 1001.08 715.851C1000.82 728.591 982.176 737.741 971.886 742.036C961.866 745.481 951.646 748.306 941.281 750.496C935.811 751.636 929.371 752.461 924.321 753.606C901.261 757.436 877.931 759.406 854.556 759.496L854.506 793.351C854.461 812.021 857.591 828.946 832.246 828.716C824.236 828.641 816.871 826.386 812.581 819.181C797.586 834.661 770.776 843.196 750.551 849.761C747.446 850.766 737.981 853.626 734.986 854.211C730.156 869.671 706.916 872.406 695.991 863.086C688.466 852.626 692.401 837.391 693.751 824.656C682.716 827.301 671.651 829.826 660.561 832.221C652.436 833.641 646.381 834.181 638.171 834.966C616.201 835.231 606.511 833.876 584.926 830.111C581.986 829.336 579.051 828.546 576.126 827.731C576.481 827.531 577.276 826.866 577.251 826.566C576.816 821.816 575.881 807.986 575.636 804.271C574.196 784.256 573.556 764.191 573.721 744.126C573.851 725.286 574.776 705.061 574.296 686.496C574.646 683.191 574.701 679.616 574.816 676.276C576.111 638.206 581.911 594.046 613.421 568.686C615.901 566.411 618.601 564.391 621.491 562.671C622.931 561.576 625.256 560.251 626.856 559.276C632.256 555.661 642.791 550.726 648.741 547.971C672.381 537.026 697.551 529.881 722.331 522.096C730.886 519.406 740.421 516.836 748.801 513.881C752.146 513.456 795.586 502.726 796.976 501.881Z" fill="#7F8F47"/>
<path d="M922.036 639.836C942.041 643.131 995.381 652.371 1000.86 675.356C1002.99 684.751 1001.29 705.506 1001.08 715.851C1000.82 728.591 982.176 737.741 971.886 742.036C961.866 745.481 951.646 748.306 941.281 750.496C935.811 751.636 929.371 752.461 924.321 753.606C901.261 757.436 877.931 759.406 854.556 759.496L854.506 793.351C854.461 812.021 857.591 828.946 832.246 828.716C824.236 828.641 816.871 826.386 812.581 819.181C797.586 834.661 770.776 843.196 750.551 849.761C747.446 850.766 737.981 853.626 734.986 854.211C730.156 869.671 706.916 872.406 695.991 863.086C688.466 852.626 692.401 837.391 693.751 824.656C694.041 823.486 695.511 808.356 695.761 806.171L701.191 758.811C701.676 753.621 702.636 745.766 703.656 740.766C695.666 738.176 684.741 733.211 679.231 726.631C676.856 723.846 675.216 720.506 674.461 716.921C673.406 711.761 673.991 682.361 674.576 676.026C676.051 655.171 738.241 643.076 755.226 640.326C756.111 643.926 757.691 650.091 759.236 653.441C760.111 655.706 760.986 658.131 761.986 660.326C768.916 674.746 774.761 679.136 791.001 682.141C819.416 687.401 855.341 688.761 881.551 675.141C889.011 671.261 891.066 662.506 892.661 655.101C892.966 652.836 893.436 650.411 893.831 648.141C904.876 647.851 912.326 644.341 922.036 639.836Z" fill="#8F5927"/>
<path d="M922.034 639.836C942.039 643.131 995.379 652.371 1000.86 675.356C1000.69 675.541 1000.53 675.721 1000.36 675.906C999.724 676.646 999.319 677.431 998.839 678.281C989.799 694.191 967.099 700.676 950.509 705.041C887.479 721.631 744.559 723.176 687.259 689.846C681.779 686.656 676.249 682.431 674.574 676.026C676.049 655.171 738.239 643.076 755.224 640.326C756.109 643.926 757.689 650.091 759.234 653.441C760.109 655.706 760.984 658.131 761.984 660.326C768.914 674.746 774.759 679.136 790.999 682.141C819.414 687.401 855.339 688.761 881.549 675.141C889.009 671.261 891.064 662.506 892.659 655.101C892.964 652.836 893.434 650.411 893.829 648.141C904.874 647.851 912.324 644.341 922.034 639.836Z" fill="#B7732C"/>
<path d="M892.66 655.1C899.375 657.19 922.56 663 919.39 673.195C916.635 682.075 893.995 688.415 886.34 689.98C863.15 694.76 839.295 695.785 815.675 694.485C798.055 693.51 781.91 691.1 765.13 685.415C748.295 679.71 741.68 667.845 761.985 660.325C768.915 674.745 774.76 679.135 791 682.14C819.415 687.4 855.34 688.76 881.55 675.14C889.01 671.26 891.065 662.505 892.66 655.1Z" fill="#8F5927"/>
<path d="M703.656 740.766C713.366 744.016 740.926 751.826 750.711 752.091C764.181 754.601 777.791 755.956 791.406 757.371C797.206 757.976 804.501 757.976 810.031 758.696C823.411 759.736 840.976 759.771 854.556 759.496L854.506 793.351C854.461 812.021 857.591 828.946 832.246 828.716C824.236 828.641 816.871 826.386 812.581 819.181C797.586 834.661 770.776 843.196 750.551 849.761C747.446 850.766 737.981 853.626 734.986 854.211C730.156 869.671 706.916 872.406 695.991 863.086C688.466 852.626 692.401 837.391 693.751 824.656C694.041 823.486 695.511 808.356 695.761 806.171L701.191 758.811C701.676 753.621 702.636 745.766 703.656 740.766Z" fill="#617B39"/>
<path d="M703.656 740.766C713.366 744.016 740.926 751.826 750.711 752.091C749.241 764.466 746.851 776.861 745.116 789.246L741.191 813.906C739.446 825.791 737.416 842.676 734.986 854.211C730.156 869.671 706.916 872.406 695.991 863.086C688.466 852.626 692.401 837.391 693.751 824.656C694.041 823.486 695.511 808.356 695.761 806.171L701.191 758.811C701.676 753.621 702.636 745.766 703.656 740.766Z" fill="#8F5927"/>
<path d="M703.654 740.766C713.364 744.016 740.924 751.826 750.709 752.091C749.239 764.466 746.849 776.861 745.114 789.246C726.919 780.991 716.179 770.636 701.189 758.811C701.674 753.621 702.634 745.766 703.654 740.766Z" fill="#69421C"/>
<path d="M810.029 758.695C823.409 759.735 840.974 759.77 854.554 759.495L854.504 793.35C854.459 812.02 857.589 828.945 832.244 828.715C824.234 828.64 816.869 826.385 812.579 819.18C809.974 812.35 810.549 798.75 810.509 790.875C810.204 780.15 810.044 769.42 810.029 758.695Z" fill="#69421C"/>
<path d="M810.509 790.875C810.549 798.75 809.974 812.35 812.579 819.18C797.584 834.66 770.774 843.195 750.549 849.76C747.444 850.765 737.979 853.625 734.984 854.21C737.414 842.675 739.444 825.79 741.189 813.905C747.589 811.685 755.364 809.69 761.984 807.57C778.379 802.315 794.484 797.24 810.509 790.875Z" fill="#CFCECE"/>
<path d="M747.945 573.71C747.06 564.035 745.795 544.15 754.835 538.82C774.775 527.055 810.23 525.03 832.81 525.545C843.2 525.815 853.56 526.695 863.845 528.18C871.71 529.605 879.48 531.165 887.14 533.485C898.88 538.19 903.11 542.14 902.595 555.305L893.83 648.14C893.435 650.41 892.965 652.835 892.66 655.1C891.065 662.505 889.01 671.26 881.55 675.14C855.34 688.76 819.415 687.4 791 682.14C774.76 679.135 768.915 674.745 761.985 660.325C760.985 658.13 760.11 655.705 759.235 653.44C757.69 650.09 756.11 643.925 755.225 640.325C750.04 619.46 748.305 595.06 747.945 573.71Z" fill="#C0CE9C"/>
<path fill-rule="evenodd" clip-rule="evenodd" d="M948.984 586.75C947.244 562.435 926.734 545.395 902.594 555.305L901.959 555.055L901.709 554.56C895.549 560.627 893.639 561.601 890.854 563.023C889.182 563.876 887.193 564.89 883.779 567.265C883.73 567.439 883.68 567.608 883.631 567.776L883.629 567.78C882.23 573.907 881.377 580.802 880.551 587.473C880.102 591.102 879.661 594.664 879.144 598C876.534 614.865 870.139 654.4 854.739 663.05C838.474 672.195 805.729 670.965 788.019 665.85C776.544 662.535 769.474 659.265 759.234 653.44C759.429 653.944 759.624 654.457 759.82 654.973C760.505 656.774 761.207 658.619 761.984 660.325C768.914 674.745 774.759 679.135 790.999 682.14C819.414 687.4 855.339 688.76 881.549 675.14C889.009 671.26 891.064 662.505 892.659 655.1C892.886 653.418 893.203 651.648 893.514 649.918L893.514 649.914L893.52 649.884C893.625 649.296 893.73 648.713 893.829 648.14C904.754 647.853 912.162 644.416 921.719 639.982L922.034 639.835C941.599 626.67 950.719 611.04 948.984 586.75ZM925.571 597.135C927.461 587.24 925.696 573.895 912.716 575.08C907.696 577.09 906.386 577.875 902.551 581.7C901.921 594.55 900.721 612.25 898.676 624.865C903.666 624.09 905.801 623.43 910.281 621.065C918.846 615.125 923.616 607.375 925.571 597.135Z" fill="#AABC86"/>
<path d="M767.009 552.729C764.499 551.439 759.784 547.255 763.309 544.625C776.294 534.925 796.804 534.35 812.609 532.63C834.954 531.73 863.679 531.504 883.154 543.159C886.184 544.969 886.229 548.854 883.549 551.359C882.999 551.864 882.439 552.35 881.864 552.825C858.609 567.04 790.604 565.659 767.009 552.729Z" fill="#917942"/>
<path d="M767.009 552.729C764.499 551.439 759.784 547.255 763.309 544.625C776.294 534.925 796.804 534.35 812.609 532.63C834.954 531.73 863.679 531.504 883.154 543.159C886.184 544.969 886.229 548.854 883.549 551.359C882.999 551.864 882.439 552.35 881.864 552.825C870.899 537.355 780.169 538.814 767.009 552.729Z" fill="#AABC86"/>
<path d="M796.975 501.881C801.515 507.391 801.235 515.966 805.145 518.906C809.945 519.456 814.445 507.326 815.68 503.276C819.87 504.016 824.05 504.816 828.22 505.676C827.98 509.936 828.345 519.831 834.115 519.816C837.89 517.921 838.84 513.891 842.135 510.406C848.965 514.916 859.53 520.961 863.845 528.181C853.56 526.696 843.2 525.816 832.81 525.546C810.23 525.031 774.775 527.056 754.835 538.821C745.795 544.151 747.06 564.036 747.945 573.711C748.305 595.061 750.04 619.461 755.225 640.326C738.24 643.076 676.05 655.171 674.575 676.026C673.99 682.361 673.405 711.761 674.46 716.921C675.215 720.506 676.855 723.846 679.23 726.631C684.74 733.211 695.665 738.176 703.655 740.766C702.635 745.766 701.675 753.621 701.19 758.811L695.76 806.171C695.51 808.356 694.04 823.486 693.75 824.656C682.715 827.301 671.65 829.826 660.56 832.221C652.435 833.641 646.38 834.181 638.17 834.966C638.62 833.221 639.95 830.366 640.665 828.641C644.44 819.506 647.155 810.091 649.19 800.421C660.195 748.221 660.735 694.526 671.02 642.256C671.8 636.521 674.605 629.276 674.83 623.701C675.67 602.986 662.56 581.601 643.41 573.561C633.19 569.266 623.67 569.331 613.42 568.686C615.9 566.411 618.6 564.391 621.49 562.671C622.93 561.576 625.255 560.251 626.855 559.276C632.255 555.661 642.79 550.726 648.74 547.971C672.38 537.026 697.55 529.881 722.33 522.096C730.885 519.406 740.42 516.836 748.8 513.881C752.145 513.456 795.585 502.726 796.975 501.881Z" fill="#617B39"/>
<path d="M796.975 501.881C801.515 507.391 801.235 515.966 805.145 518.906C809.945 519.456 814.445 507.326 815.68 503.276C819.87 504.016 824.05 504.816 828.22 505.676C827.98 509.936 828.345 519.831 834.115 519.816C837.89 517.921 838.84 513.891 842.135 510.406C848.965 514.916 859.53 520.961 863.845 528.181C853.56 526.696 843.2 525.816 832.81 525.546C810.23 525.031 774.775 527.056 754.835 538.821C745.795 544.151 747.06 564.036 747.945 573.711L747.155 571.711C740.895 570.981 704.495 587.026 698.15 591.546C693.305 595.001 686.9 600.696 682.63 605.146C678.92 593.611 674.395 584.671 665.28 576.476C655.37 567.571 641.27 562.186 627.925 562.816C625.315 563.026 624.105 563.231 621.49 562.671C622.93 561.576 625.255 560.251 626.855 559.276C632.255 555.661 642.79 550.726 648.74 547.971C672.38 537.026 697.55 529.881 722.33 522.096C730.885 519.406 740.42 516.836 748.8 513.881C752.145 513.456 795.585 502.726 796.975 501.881Z" fill="#7F8F47"/>
<path d="M168.38 487.992C170.64 493.895 176.073 508.636 177.696 514.426C174.3 519.326 173.126 522.666 172.299 528.611C171.937 534.051 171.889 537.361 172.564 542.816C172.793 544.666 173.547 549.686 173.57 551.266C174.689 554.731 175.55 557.156 176.963 560.506C184.544 569.966 186.634 578.771 200.907 581.316C201.958 581.506 203.675 581.251 204.75 581.131L205.641 581.581C210.053 591.701 209.927 599.316 218.561 606.011C216.92 609.361 217.311 626.611 219.621 629.901C213.418 634.216 209.599 636.801 207.128 644.256C210.429 654.426 216.605 656.126 226.257 661.051C245.478 670.681 264.899 679.906 284.506 688.726C333.228 711.001 383.448 733.146 437.329 737.821C446.951 738.656 459.77 739.601 469.259 738.586C501.275 738.961 541.265 723.716 561.48 698.591C565.615 693.451 568.105 689.401 574.295 686.496C574.775 705.061 573.85 725.286 573.72 744.126C573.555 764.191 574.195 784.256 575.635 804.271C575.88 807.986 576.815 821.816 577.25 826.566C577.275 826.866 576.48 827.531 576.125 827.731C579.05 828.546 581.985 829.336 584.925 830.111C606.51 833.876 616.2 835.231 638.17 834.966C646.38 834.181 652.435 833.641 660.56 832.221C671.65 829.826 682.715 827.301 693.75 824.656C692.4 837.391 688.465 852.626 695.99 863.086C651.55 870.836 613.11 876.366 567.84 880.001C520.035 883.721 472.086 885.276 424.14 884.661C358.967 884.056 292.278 879.826 228.007 868.481C199.529 863.451 168.314 856.051 141.662 844.611C130.655 839.801 111.307 829.646 107.367 817.246C99.0392 791.036 143.468 775.186 160.744 768.656L160.452 764.951C154.295 762.376 148.194 759.691 143.226 755.116C120.656 734.316 109.848 633.391 108.604 601.726C107.588 575.891 111.102 535.241 129.034 515.831C131.159 512.871 133.613 510.266 136.119 507.636C146.096 497.433 155.469 493.108 168.38 487.992Z" fill="#7F8F47"/>
<path d="M160.452 764.949C167.208 766.474 173.982 768.269 180.762 769.869C186.606 771.249 193.19 772.189 198.844 773.579C203.411 774.689 211.389 776.284 216.052 776.859C220.075 777.714 224.352 778.379 228.219 779.224C316.614 796.864 405.746 810.584 495.353 820.349C518.075 822.724 544.09 825.689 566.725 827.089C569.85 827.364 572.985 827.579 576.125 827.729C579.05 828.544 581.985 829.334 584.925 830.109C606.51 833.874 616.2 835.229 638.17 834.964C646.38 834.179 652.435 833.639 660.56 832.219C671.65 829.824 682.715 827.299 693.75 824.654C692.4 837.389 688.465 852.624 695.99 863.084C651.55 870.834 613.11 876.364 567.84 879.999C520.035 883.719 472.086 885.274 424.14 884.659C358.967 884.054 292.278 879.824 228.007 868.479C199.529 863.449 168.314 856.049 141.662 844.609C130.655 839.799 111.307 829.644 107.367 817.244C99.0392 791.034 143.468 775.184 160.744 768.654L160.452 764.949Z" fill="#CFCECE"/>
<path d="M584.926 830.109C606.511 833.874 616.201 835.229 638.171 834.964C646.381 834.179 652.436 833.639 660.561 832.219C659.746 836.564 659.011 840.369 656.301 843.954C651.391 850.439 637.921 852.924 630.136 853.499C619.021 854.324 599.411 853.769 590.411 845.974C585.561 841.774 585.186 835.939 584.926 830.109Z" fill="#8F5927"/>
<path d="M160.451 764.949C167.207 766.474 173.981 768.269 180.761 769.869C186.605 771.249 193.19 772.189 198.843 773.579C203.411 774.689 211.389 776.284 216.051 776.859C220.075 777.714 224.351 778.379 228.218 779.224C221.266 797.369 181.669 793.989 168.389 785.259C162.796 781.584 161.826 774.769 160.743 768.654L160.451 764.949Z" fill="#8F5927"/>
<path d="M168.38 487.992C170.641 493.895 176.073 508.636 177.697 514.426C174.301 519.326 173.126 522.666 172.299 528.611C171.938 534.051 171.89 537.361 172.564 542.816C172.793 544.666 173.548 549.686 173.571 551.266C174.69 554.731 175.551 557.156 176.964 560.506C182.551 586.286 185.94 608.821 187.594 635.226C188.938 656.696 187.692 675.796 188.059 697.001C188.316 714.006 189.809 730.971 192.525 747.761C193.777 755.546 195.773 766.506 198.844 773.581C193.191 772.191 186.606 771.251 180.762 769.871C173.982 768.271 167.208 766.476 160.452 764.951C154.296 762.376 148.195 759.691 143.227 755.116C120.656 734.316 109.849 633.391 108.604 601.726C107.588 575.891 111.103 535.241 129.035 515.831C131.159 512.871 133.613 510.266 136.12 507.636C146.096 497.433 155.47 493.108 168.38 487.992Z" fill="#7F8F47"/>
<path d="M168.38 487.992C170.64 493.895 176.073 508.636 177.696 514.426C174.3 519.326 173.126 522.666 172.299 528.611C161.584 514.981 153.119 510.171 136.119 507.636C146.096 497.433 155.469 493.108 168.38 487.992Z" fill="#7F8F47"/>
<path d="M136.118 507.635C153.118 510.17 161.583 514.98 172.298 528.61C171.936 534.05 171.888 537.36 172.563 542.815C172.792 544.665 173.546 549.685 173.569 551.265C165.519 536.985 157.857 522.515 140.775 517.755C136.877 516.665 132.594 516.88 129.033 515.83C131.158 512.87 133.612 510.265 136.118 507.635Z" fill="#617B39"/>
<path d="M176.963 560.506C184.543 569.966 186.633 578.771 200.907 581.316C201.958 581.506 203.675 581.251 204.749 581.131L205.641 581.581C210.053 591.701 209.927 599.316 218.56 606.011C216.919 609.361 217.311 626.611 219.62 629.901C213.417 634.216 209.599 636.801 207.128 644.256C210.428 654.426 216.605 656.126 226.257 661.051C245.478 670.681 264.898 679.906 284.506 688.726C333.228 711.001 383.447 733.146 437.328 737.821C446.95 738.656 459.77 739.601 469.259 738.586C501.275 738.961 541.265 723.716 561.48 698.591C565.615 693.451 568.105 689.401 574.295 686.496C574.775 705.061 573.85 725.286 573.72 744.126C573.555 764.191 574.195 784.256 575.635 804.271C575.88 807.986 576.815 821.816 577.25 826.566C577.275 826.866 576.48 827.531 576.125 827.731C572.985 827.581 569.85 827.366 566.725 827.091C565.715 821.291 563.945 816.166 563.32 809.906C560.415 780.601 561.28 750.691 562.1 721.336C537.355 741.171 515.995 750.211 484.761 755.101C430.264 763.636 385.713 745.001 336.089 725.381C310.156 715.211 284.524 704.286 259.225 692.626C245.532 686.291 231.81 679.896 218.697 672.416C212.586 668.931 208.476 665.546 202.932 661.431C199.791 686.826 201.978 742.621 210.836 767.041C212.162 770.696 213.833 773.671 216.051 776.861C211.389 776.286 203.411 774.691 198.843 773.581C195.772 766.506 193.776 755.546 192.524 747.761C189.808 730.971 188.315 714.006 188.058 697.001C187.691 675.796 188.937 656.696 187.593 635.226C185.939 608.821 182.55 586.286 176.963 560.506Z" fill="#617B39"/>
<path d="M189.298 423.193C208.249 430.014 230.508 437.008 247.169 448.58C249.92 450.492 257.008 457.758 259.002 458.656C267.294 455.62 279.134 449.758 287.876 446.125C289.39 444.881 291.11 443.032 292.519 441.606C305.734 444.047 318.05 445.384 331.455 445.955C333.973 446.063 340.527 446.249 342.634 446.773C347.026 446.047 356.186 443.086 361.388 442.013C379.184 438.233 397.308 436.202 415.5 435.95C416.412 437.069 417.419 438.518 418.29 439.705C421.233 444.734 424.277 449.703 427.42 454.609C435.3 453.838 441.709 452.561 446.155 460.473C450.262 477.469 454.792 495.679 458.424 512.714L461.162 524.269C468.314 522.044 478.634 520.124 485.952 519.449C507.53 535.404 514.25 571.814 502.12 595.354C487.91 597.569 480.483 598.694 465.954 598.039L467.29 604.539C465.536 605.504 463.651 606.474 462.013 607.604C458.648 609.014 455.924 610.074 452.474 611.249C448.797 607.104 447.056 605.269 442.806 601.679C438.866 599.404 437.1 598.429 432.878 596.684C428.372 595.474 423.544 594.774 418.888 595.249C413.897 595.764 410.87 595.949 406.227 598.034C384.673 604.889 383.272 631.824 383.984 650.309C369.967 652.189 354.514 655.274 340.589 657.889C336.584 658.839 335.568 659.464 331.938 661.364C322.852 663.199 302.913 660.609 296.383 653.509C292.71 649.614 290.334 648.514 285.706 645.904C277.439 641.474 269.37 636.599 261.023 632.209C256.299 629.409 243.693 622.584 240.175 619.919C232.757 622.864 226.484 625.594 219.62 629.899C217.311 626.609 216.919 609.359 218.56 606.009C209.927 599.314 210.053 591.699 205.641 581.579L204.749 581.129C203.675 581.249 201.958 581.504 200.907 581.314C186.633 578.769 184.543 569.964 176.963 560.504C175.55 557.154 174.689 554.729 173.57 551.264C173.547 549.684 172.792 544.664 172.563 542.814C171.889 537.359 171.937 534.049 172.298 528.609C173.125 522.664 174.3 519.324 177.696 514.424C176.072 508.634 170.64 493.893 168.379 487.991L160.029 463.207C157.623 456.052 149.781 438.898 159.484 433.755C162.298 432.263 167.292 433.499 170.157 434.624C176.62 431.223 182.58 426.757 189.298 423.193Z" fill="#C44439"/>
<path d="M189.297 423.193C208.249 430.014 230.507 437.008 247.168 448.58C249.919 450.492 257.008 457.758 259.002 458.656C267.294 455.62 279.134 449.758 287.875 446.125C289.39 444.881 291.11 443.032 292.519 441.606C305.733 444.047 318.049 445.384 331.455 445.955C333.973 446.063 340.527 446.249 342.634 446.773C347.025 446.047 356.186 443.086 361.387 442.013C379.184 438.233 397.307 436.202 415.499 435.95C416.411 437.069 417.419 438.518 418.289 439.705C421.233 444.734 424.277 449.703 427.419 454.609C389.665 459.894 352.416 468.31 316.057 479.769C306.939 482.635 295.074 485.616 287.548 491.302C276.173 490.674 264.82 489.696 253.505 488.369C246.387 475.541 224.765 465.139 212.184 457.691C198.598 449.648 183.917 442.511 170.156 434.624C176.62 431.223 182.58 426.757 189.297 423.193Z" fill="#F9EBC8"/>
<path d="M292.519 441.607C305.733 444.048 318.049 445.385 331.455 445.956C333.973 446.064 340.527 446.25 342.634 446.774C320.309 453.693 296.554 461.536 277.192 475.21C275.336 476.521 273.865 478.696 271.572 477.586L270.749 475.5C268.377 471.272 266.132 468.023 263.225 464.194C262.039 462.633 259.797 460.197 259.002 458.657C267.294 455.621 279.134 449.759 287.875 446.126C289.39 444.882 291.11 443.033 292.519 441.607Z" fill="#B7732C"/>
<path d="M259.002 458.656C267.294 455.62 279.134 449.758 287.875 446.125C286.996 448.494 285.737 450.209 284.405 452.325C279.621 459.92 274.624 467.377 270.749 475.499C268.377 471.271 266.132 468.022 263.225 464.193C262.039 462.632 259.797 460.196 259.002 458.656Z" fill="#7F8F47"/>
<path d="M485.952 519.449C507.53 535.404 514.25 571.814 502.12 595.354C487.91 597.569 480.484 598.694 465.955 598.039C448.482 596.904 434.879 596.439 424.467 580.944C421.855 576.949 421.071 574.649 419.846 570.164C419.115 566.154 418.167 561.614 418.619 557.574C419.328 554.019 419.588 552.774 420.901 549.409C429.433 532.729 444.415 529.464 461.162 524.269C468.314 522.044 478.634 520.124 485.952 519.449Z" fill="#8F5927"/>
<path d="M420.901 549.41C431.524 553.39 443.996 551.375 455.075 552.205C456.776 552.335 458.065 552.95 459.169 554.22C457.339 561.285 424.479 564.235 418.783 558.425C418.729 558.14 418.674 557.855 418.619 557.575C419.328 554.02 419.588 552.775 420.901 549.41Z" fill="#69421C"/>
<path d="M419.846 570.164C425.448 571.154 430.594 571.869 436.264 572.259C440.32 572.539 451.204 571.879 453.646 575.344C452.529 581.429 429.156 581.069 424.467 580.944C421.855 576.949 421.071 574.649 419.846 570.164Z" fill="#69421C"/>
<path d="M331.937 661.366C331.084 657.166 328.676 649.691 327.417 645.326L318.108 613.256L289.855 515.451C288.398 510.331 284.484 499.802 287.469 495.407C288.452 493.563 289.634 493.482 291.234 492.849C294.682 491.579 296.229 496.67 296.848 498.92C309.781 545.936 323.807 592.676 336.761 639.686C338.066 644.421 341.025 653.521 340.589 657.891C336.583 658.841 335.568 659.466 331.937 661.366Z" fill="#AF3931"/>
<path d="M177.697 514.426C181.442 522.421 197.898 519.326 205.271 540.161C206.369 543.111 206.722 545.011 207.371 548.086C208.132 551.651 209.784 557.136 211.207 560.486C211.961 563.201 212.285 565.551 211.823 568.381C210.486 574.986 210.8 577.076 205.642 581.581L204.75 581.131C203.676 581.251 201.959 581.506 200.908 581.316C186.634 578.771 184.544 569.966 176.964 560.506C175.551 557.156 174.69 554.731 173.571 551.266C173.548 549.686 172.793 544.666 172.564 542.816C171.89 537.361 171.938 534.051 172.299 528.611C173.126 522.666 174.301 519.326 177.697 514.426Z" fill="#8F5927"/>
<path d="M207.37 548.085C205.234 553.13 182.822 550.305 181.301 544.655C181.973 543.905 182.264 543.45 183.424 543.36C191.375 542.73 197.583 542.62 205.27 540.16C206.368 543.11 206.721 545.01 207.37 548.085Z" fill="#69421C"/>
<path d="M211.206 560.484C211.961 563.199 212.285 565.549 211.822 568.379C206.579 569.724 191.059 571.669 188.508 565.859C190.351 561.989 206.087 561.659 210.491 560.654L211.206 560.484Z" fill="#69421C"/>
<path d="M285.706 645.904C276.702 612.304 265.372 576.259 255.654 542.654L249.121 519.769C247.207 513.304 238.748 490.907 245.933 487.109C251.718 488.352 255.09 507.654 256.8 513.369L270.181 558.929C275.167 575.674 280.237 592.389 285.39 609.079C289.213 621.469 292.997 633.879 296.451 646.374C297.077 648.639 297.556 651.369 296.383 653.509C292.71 649.614 290.333 648.514 285.706 645.904Z" fill="#AF3931"/>
<path d="M218.56 606.01C225.88 610.94 232.749 615.225 240.175 619.92C232.756 622.865 226.484 625.595 219.62 629.9C217.31 626.61 216.919 609.36 218.56 606.01Z" fill="#917942"/>
<path d="M418.888 595.25C423.544 594.775 428.372 595.475 432.878 596.685C437.1 598.43 438.866 599.405 442.806 601.68C447.056 605.27 448.797 607.105 452.474 611.25C455.924 610.075 458.648 609.015 462.013 607.605C463.651 606.475 465.536 605.505 467.29 604.54C470.05 602.87 473.221 600.84 476.068 599.425C511.465 602.28 528.655 636.725 522.18 669.035C499.161 676.585 472.946 681.05 449.067 685.57C433.708 688.995 422.219 687.585 407.49 682.615C389.453 676.525 386.827 668.08 383.984 650.31C383.272 631.825 384.673 604.89 406.227 598.035C410.87 595.95 413.897 595.765 418.888 595.25Z" fill="#8F5927"/>
<path d="M432.879 596.686C437.101 598.431 438.866 599.406 442.807 601.681C433.417 607.966 429.809 622.186 424.317 626.596L423.015 626.031C417.406 619.501 428.301 602.186 432.879 596.686Z" fill="#69421C"/>
<path d="M462.014 607.605C465.929 613.75 470.213 622.935 468.7 630.47C467.949 634.21 465.52 634.92 462.329 636.315C460.683 629.615 459.488 625.355 456.424 619.035C455.964 618.085 452.601 611.625 452.475 611.25C455.925 610.075 458.649 609.015 462.014 607.605Z" fill="#69421C"/>
<path d="M406.227 598.035C410.869 595.95 413.897 595.765 418.887 595.25C416.833 598.49 414.691 601.75 412.895 605.175C410.568 609.61 408.629 622.835 403.721 624.325C399.158 620.335 404.257 603.01 406.227 598.035Z" fill="#69421C"/>
<path d="M739.281 452.777C747.011 473.191 752.971 491.929 748.801 513.88C740.421 516.835 730.886 519.405 722.331 522.095C697.551 529.88 672.381 537.025 648.741 547.97C642.791 550.725 632.256 555.66 626.856 559.275C625.256 560.25 622.931 561.575 621.491 562.67C618.601 564.39 615.901 566.41 613.421 568.685C581.911 594.045 576.111 638.205 574.816 676.275C574.701 679.615 574.646 683.19 574.296 686.495C568.106 689.4 565.616 693.45 561.481 698.59C541.266 723.715 501.276 738.96 469.26 738.585C471.258 736.94 482.672 732.07 485.999 730.395C493.136 726.78 500.066 722.77 506.751 718.375C527.191 704.88 546.486 686.48 557.816 664.455C569.956 640.855 569.336 611.13 581.881 588.19C585.041 582.465 588.856 577.13 593.241 572.28C597.951 567.115 609.526 558.39 611.726 552.915C614.116 546.965 609.371 532.145 610.466 526.845C615.931 522.41 627.166 538.215 629.806 541.97C632.841 540.935 636.551 539.32 639.476 537.965C659.816 528.49 681.236 520.295 701.096 509.915C711.696 504.37 725.521 496.397 731.606 485.917C736.686 477.164 737.486 463.334 739.016 453.508C739.106 453.265 739.191 453.021 739.281 452.777Z" fill="#E5CFA2"/>
<path d="M261.023 632.211C269.369 636.601 277.438 641.476 285.706 645.906C290.333 648.516 292.71 649.616 296.383 653.511C302.913 660.611 322.852 663.201 331.937 661.366C335.568 659.466 336.583 658.841 340.589 657.891C354.514 655.276 369.966 652.191 383.983 650.311C386.826 668.081 389.452 676.526 407.49 682.616C422.219 687.586 433.708 688.996 449.066 685.571C472.946 681.051 499.161 676.586 522.179 669.036C528.294 666.761 531.504 664.781 536.439 660.656C527.234 687.186 490.666 698.131 465.833 699.501C444.644 700.671 405.848 702.536 390.793 685.566C364.142 677.631 334.171 675.696 307.233 668.551C297.995 666.101 243.332 644.876 242.217 637.311C244.375 634.526 256.4 633.446 260.578 632.331L261.023 632.211Z" fill="#E5CFA2"/>
<path d="M551.316 581.475C556.171 612.185 553.636 633.87 536.441 660.655C531.506 664.78 528.296 666.76 522.181 669.035C528.656 636.725 511.466 602.28 476.069 599.425C473.222 600.84 470.051 602.87 467.291 604.54L465.955 598.04C480.484 598.695 487.911 597.57 502.121 595.355C513.791 593.635 525.276 590.82 536.416 586.945C541.241 585.27 545.851 583.2 550.716 581.665L551.316 581.475Z" fill="#D38A39"/>
<path d="M485.818 519.094C506.359 518.714 522.749 527.349 535.624 543.474C544.784 554.949 548.174 567.374 551.314 581.474L550.714 581.664C545.849 583.199 541.239 585.269 536.414 586.944C525.274 590.819 513.789 593.634 502.119 595.354C514.249 571.814 507.529 535.404 485.951 519.449L485.818 519.094Z" fill="#B7732C"/>
<path d="M509.974 499.184C514.414 497.206 520.964 493.567 525.429 491.238C562.694 497.271 579.549 528.824 576.034 565.019C575.854 566.869 575.369 568.404 574.329 569.939L573.244 570.474C566.274 565.549 568.019 515.839 532.964 503.814C527.254 501.859 520.269 500.819 514.309 501.844C510.549 502.489 506.509 504.019 502.744 504.164C505.054 502.404 507.479 501.129 509.974 499.184Z" fill="#E5CFA2"/>
<path d="M721.974 416.139C724.229 419.821 728.035 426.404 729.68 430.476C728.575 431.336 719.289 444.97 716.234 448.057C700.164 464.299 679.395 473.568 658.13 480.623C653.155 482.273 640.66 485.354 638.02 483.796L638.219 482.928C641.364 479.853 655.774 473.977 661.594 470.693C680.074 460.266 703.29 447.695 716.13 430.42C718.77 426.868 720.719 420.253 721.974 416.139Z" fill="#E5CFA2"/>
<path d="M589.31 116.472C677.03 111.165 795.225 127.685 865.335 186.896C883.07 201.872 894.065 218.917 903.065 240.243C928.01 302.891 909.745 401.043 899.12 466.558C896.05 485.514 891.38 514.904 887.14 533.484C879.48 531.164 871.71 529.604 863.845 528.179C859.53 520.959 848.965 514.914 842.135 510.404C838.84 513.889 837.89 517.919 834.115 519.814C828.345 519.829 827.98 509.934 828.22 505.674C824.05 504.814 819.87 504.014 815.68 503.274C814.445 507.324 809.945 519.454 805.145 518.904C801.235 515.964 801.515 507.389 796.975 501.879C795.585 502.724 752.145 513.454 748.8 513.879C752.97 491.929 747.01 473.19 739.28 452.777C736.345 445.232 733.14 437.794 729.68 430.475C728.035 426.403 724.23 419.821 721.975 416.138C709.57 395.23 703.46 385.213 678.465 382.9C665.76 365.833 655.625 354.883 640.34 340.157C633.19 333.27 613.625 318.876 610.05 312.069C603.625 299.835 601.565 275.351 597.725 260.428C592.165 239.567 584.08 219.463 573.65 200.562C599.075 176.791 602.375 144.908 581.125 117.124C583.945 116.809 586.49 116.642 589.31 116.472Z" fill="#7F8F47"/>
<path d="M836.61 401.818C838.55 384.361 841.415 366.874 843.99 349.499C850.27 307.112 850.075 249.844 903.065 240.244C928.01 302.892 909.745 401.044 899.12 466.559C896.05 485.515 891.38 514.905 887.14 533.485C879.48 531.165 871.71 529.605 863.845 528.18C859.53 520.96 848.965 514.915 842.135 510.405C838.84 513.89 837.89 517.92 834.115 519.815C828.345 519.83 827.98 509.935 828.22 505.675C824.05 504.815 819.87 504.015 815.68 503.275C818.67 494.115 818.195 487.702 814.39 478.919C817.815 473.66 820.17 468.485 822.68 462.798C812.04 448.773 810.02 435.617 817.905 419.267C822.035 410.703 826.675 403.921 836.61 401.818Z" fill="#617B39"/>
<path d="M836.61 401.818C837.85 402.381 839.275 403.01 839.64 404.463C841.725 412.411 834.27 424.531 837.185 432.13C841.41 443.149 854.9 448.163 862.215 457.392C876.605 475.551 863.195 491.98 848.935 504.025C846.78 505.845 844.075 508.335 842.135 510.405C838.84 513.89 837.89 517.92 834.115 519.815C828.345 519.83 827.98 509.935 828.22 505.675C824.05 504.815 819.87 504.015 815.68 503.275C818.67 494.115 818.195 487.702 814.39 478.919C817.815 473.66 820.17 468.485 822.68 462.798C812.04 448.773 810.02 435.617 817.905 419.267C822.035 410.703 826.675 403.921 836.61 401.818Z" fill="#F9EBC8"/>
<path d="M814.391 478.918C817.816 473.659 820.171 468.484 822.681 462.797C840.161 481.962 832.991 483.795 828.221 505.674C824.051 504.814 819.871 504.014 815.681 503.274C818.671 494.114 818.196 487.701 814.391 478.918Z" fill="#617B39"/>
<path d="M581.125 117.124C583.945 116.81 586.49 116.642 589.31 116.473L589.99 117.185C592.625 119.928 596.54 122.538 599.225 125.381C610.755 137.602 615.135 151.613 614.81 168.266C614.61 178.429 610.815 188.195 611.945 198.361C612.88 206.765 615.73 216.969 618.255 225.103C625.615 248.826 635.29 276.303 648.56 297.537C652.215 303.259 656.475 308.573 661.26 313.389C674.405 326.703 689.02 338.477 702.12 351.874C730.42 380.807 771.345 434.934 771.425 476.714C771.435 482.564 770.715 488.406 769.78 494.172C775.035 492.991 782.105 491.155 787.255 490.221C790.16 493.603 794.49 498.362 796.975 501.88C795.585 502.725 752.145 513.455 748.8 513.88C752.97 491.929 747.01 473.191 739.28 452.777C736.345 445.233 733.14 437.794 729.68 430.476C728.035 426.404 724.23 419.821 721.975 416.139C709.57 395.231 703.46 385.213 678.465 382.901C665.76 365.834 655.625 354.884 640.34 340.158C633.19 333.271 613.625 318.877 610.05 312.069C603.625 299.835 601.565 275.352 597.725 260.429C592.165 239.567 584.08 219.463 573.65 200.562C599.075 176.791 602.375 144.908 581.125 117.124Z" fill="#617B39"/>
<path d="M787.255 490.221C776.195 476.082 776.585 463.399 790.215 450.465C791.915 448.853 794.12 447.245 796.555 447.431C799.59 449.728 797.51 454.656 799.26 458.389C803.085 466.554 809.6 471.124 814.39 478.918C818.195 487.702 818.67 494.115 815.68 503.275C814.445 507.325 809.945 519.455 805.145 518.905C801.235 515.965 801.515 507.39 796.975 501.88C794.49 498.362 790.16 493.603 787.255 490.221Z" fill="#F9EBC8"/>
<path d="M924.32 753.605C929.37 752.46 935.81 751.635 941.28 750.495C951.645 748.305 961.865 745.48 971.885 742.035C972.505 748.13 973.075 754.225 973.59 760.33L979.27 818.695C980.31 829.5 981.31 838.945 981.66 850.15C982.41 873.815 944.61 873.785 937.675 856.68C935.345 850.945 934.23 836.16 933.385 829.045L928.705 788.585C927.165 776.935 925.7 765.275 924.32 753.605Z" fill="#8F5927"/>
<path d="M924.32 753.605C929.37 752.46 935.81 751.635 941.28 750.495C951.645 748.305 961.865 745.48 971.885 742.035C972.505 748.13 973.075 754.225 973.59 760.33C962.905 769.255 942.255 784.22 928.705 788.585C927.165 776.935 925.7 765.275 924.32 753.605Z" fill="#69421C"/>
</svg>
