<svg width="1024" height="1024" viewBox="0 0 1024 1024" fill="none" xmlns="http://www.w3.org/2000/svg">
<path d="M568.301 139.56C581.761 135.248 602.376 132.306 616.601 128.983C626.636 126.637 642.216 123.589 652.161 122.365C655.496 121.955 673.541 124.075 678.296 124.528L733.536 129.935L844.851 141.346C867.781 143.763 890.931 146.004 913.771 149.214C921.166 150.253 929.096 152.129 935.421 156.263C950.181 165.716 947.641 181.967 947.646 197.176L947.591 233.669L947.481 362.432L947.386 706.694L947.406 834.599C947.401 854.999 947.406 875.684 947.411 896.014C947.411 903.424 946.556 912.154 938.976 915.189C926.821 920.049 904.496 933.114 892.451 935.549C883.126 935.794 861.951 932.389 851.591 931.044L774.011 920.949L636.241 903.149L593.856 897.674C553.261 892.544 553.501 894.304 553.751 853.189L553.861 817.394L553.941 691.864C561.936 686.884 568.896 681.229 576.481 676.539C572.486 666.029 557.541 608.899 558.111 599.904C556.336 599.064 556.241 599.449 553.931 599.659C552.936 588.479 554.361 577.419 553.696 566.754C554.476 560.604 553.961 541.179 553.931 534.234C556.296 532.794 562.321 527.499 564.676 525.499C509.221 515.409 510.426 493.933 500.126 444.882C494.485 418.004 485.951 391.849 501.081 365.762C511.656 347.525 530.921 336.759 550.561 331.176L554.016 332.572C554.496 293.16 553.661 253.267 554.036 213.808C554.161 196.507 553.801 179.179 554.226 161.884C554.481 151.404 557.876 143.429 568.301 139.56Z" fill="#A86221"/>
<path d="M550.561 331.176L554.016 332.572C569.226 341.082 580.026 348.591 590.486 363.088L591.061 363.043L591.466 361.959C591.461 365.801 598.796 377.591 600.876 381.826L602.006 382.511C620.106 376.837 641.751 371.741 660.361 366.838C665.661 365.542 669.876 364.855 675.201 364.087C674.731 369.341 674.391 373.988 678.121 378.249C683.991 384.957 694.511 386.399 702.796 386.208C719.251 385.578 732.266 374.5 740.816 361.147L748.001 361.712C747.571 387.606 743.391 398.826 776.291 395.503C782.941 394.615 789.131 392.9 795.601 391.218C796.511 394.098 797.336 395.57 800.116 397.086C805.171 399.845 818.891 400.243 823.771 397.264C831.131 403.499 845.146 401.659 854.271 401.668C858.536 401.259 864.786 399.517 868.916 398.242L868.891 411.649C855.131 411.093 837.106 407.985 823.121 406.299C798.026 403.399 772.916 400.669 747.786 398.11L658.746 389.351C642.491 387.844 616.951 386.074 601.756 383.334C602.721 387.763 605.386 392.838 606.631 397.224C608.296 403.105 609.391 409.843 610.311 415.897C626.461 417.013 642.911 419.075 659.096 420.408C659.191 424.765 658.926 451.665 659.976 453.614L660.401 453.878C666.826 451.924 673.411 450.45 679.851 448.641C692.176 445.181 702.676 444.02 713.496 452.308C715.176 454.838 714.956 457.594 715.006 460.658C717.421 459.905 722.466 459.018 725.136 458.474C737.786 455.36 757.481 449.269 768.516 459.847L769.351 460.801C770.656 463.689 770.591 465.388 770.546 468.555C749.971 474.976 751.201 474.688 752.421 496.95C752.626 499.48 752.051 501.799 754.476 502.849C754.451 507.164 754.561 512.304 754.386 516.544L752.336 517.519C752.446 548.944 751.796 584.519 752.906 615.574C752.796 620.874 752.046 625.939 755.886 630.259C760.081 634.979 771.401 635.379 777.471 635.364C780.146 635.349 782.821 635.199 785.481 634.924C796.086 633.464 803.636 631.604 813.716 628.369C813.921 631.739 813.911 633.889 816.726 636.204C823.376 641.679 840.071 642.979 847.821 640.079C854.111 639.534 862.656 636.464 868.836 634.484C868.951 638.749 869.556 650.569 867.431 651.049C863.066 652.029 830.221 647.564 825.761 647.054L739.161 637.299L674.316 630.559C665.016 629.579 649.021 628.324 640.251 626.644C635.556 635.319 632.231 640.029 624.721 646.724C622.721 648.509 618.066 652.144 616.361 653.884C607.011 660.474 599.451 663.879 590.966 669.454C585.816 671.444 581.496 674.509 576.481 676.539C572.486 666.029 557.541 608.899 558.111 599.904C556.336 599.064 556.241 599.449 553.931 599.659C552.936 588.479 554.361 577.419 553.696 566.754C554.476 560.604 553.961 541.179 553.931 534.234C556.296 532.794 562.321 527.499 564.676 525.499C509.221 515.409 510.426 493.933 500.126 444.882C494.485 418.004 485.951 391.849 501.081 365.762C511.656 347.525 530.921 336.759 550.561 331.176Z" fill="#835531"/>
<path d="M725.136 458.475C737.786 455.36 757.481 449.27 768.516 459.848L769.351 460.802C770.656 463.69 770.591 465.389 770.546 468.556C749.971 474.977 751.201 474.688 752.421 496.95C752.626 499.48 752.051 501.8 754.476 502.85C754.451 507.165 754.561 512.305 754.386 516.545L752.336 517.52C752.446 548.945 751.796 584.52 752.906 615.575C742.296 622.67 724.711 628.645 711.906 628.63C703.861 629.085 686.121 629.57 679.946 623.755C677.216 621.185 677.191 619.03 677.021 615.54C677.591 608.515 677.006 594.1 676.961 586.335L676.936 517.525C676.971 505.53 676.886 493.579 677.376 481.571C677.916 468.296 685.896 468.877 696.411 465.658C702.481 463.802 708.861 462.304 715.006 460.659C717.421 459.905 722.466 459.018 725.136 458.475Z" fill="#C9BD2A"/>
<path d="M769.349 460.803C770.654 463.691 770.589 465.39 770.544 468.557C749.969 474.978 751.199 474.689 752.419 496.951C752.624 499.481 752.049 501.801 754.474 502.851C754.449 507.166 754.559 512.306 754.384 516.546L752.334 517.521C752.444 548.946 751.794 584.521 752.904 615.576C742.294 622.671 724.709 628.646 711.904 628.631C714.604 621.941 713.514 593.671 713.569 585.226C713.944 558.906 714.139 532.581 714.149 506.256C714.209 498.563 712.959 484.452 715.524 477.794C718.214 470.807 759.639 465.044 768.669 461.111C768.899 461.011 769.124 460.906 769.349 460.803Z" fill="#A79F2D"/>
<path d="M752.421 496.951C752.626 499.481 752.051 501.801 754.476 502.851C754.451 507.166 754.561 512.306 754.386 516.546L752.336 517.521C752.076 511.111 752.011 503.356 752.421 496.951Z" fill="#338577"/>
<path d="M725.134 458.475C737.784 455.36 757.479 449.27 768.514 459.848C767.759 460.242 765.159 460.656 764.054 460.904C747.109 464.698 729.909 469.763 712.949 473.08C708.884 473.875 692.759 471.196 688.939 469.773C696.259 467.273 720.669 461.308 725.134 458.475Z" fill="#DCD079"/>
<path d="M681.544 499.002C690.579 499.79 699.339 500.79 708.459 501.485C708.619 505.815 708.604 509.53 708.494 513.865C699.539 514.15 690.184 513.41 681.519 511.08C681.329 507.12 681.469 502.98 681.544 499.002Z" fill="#DCD079"/>
<path d="M680.076 593.615C693.236 596.68 695.581 596.765 708.841 596.58C709.486 600.15 709.631 603.79 709.271 607.4C698.016 607.765 690.261 607.675 679.461 604.12C679.511 600.24 679.486 597.435 680.076 593.615Z" fill="#A79F2D"/>
<path d="M660.401 453.878C666.826 451.924 673.41 450.45 679.85 448.641C692.175 445.181 702.675 444.02 713.495 452.308C715.175 454.838 714.955 457.594 715.005 460.658C708.86 462.304 702.48 463.801 696.41 465.658C685.895 468.876 677.915 468.296 677.375 481.571C676.885 493.579 676.97 505.529 676.935 517.524L676.961 586.334C677.006 594.099 677.591 608.514 677.021 615.539C671.076 618.439 659.586 621.589 652.896 621.674C649.391 621.564 645.626 621.889 642.656 620.374C641.761 618.794 642.08 619.139 642.31 616.924C642.865 614.104 641.73 612.004 640.66 609.459C646.285 604.894 643.905 597.094 639.355 592.639C639.74 588.989 640.2 587.379 638.195 584.254C633.58 578.489 624.81 578.249 617.98 577.564C619.735 565.669 620.846 551.349 622.081 539.289C623.706 523.999 625.431 508.719 627.266 493.453C628.201 485.258 628.87 477.091 629.87 468.887C631.03 459.357 639.055 458.328 647.35 458.044C650.745 456.576 656.606 455.036 660.401 453.878Z" fill="#6A8C3D"/>
<path d="M713.495 452.309C715.175 454.838 714.955 457.594 715.005 460.659C708.86 462.304 702.479 463.802 696.409 465.658C685.894 468.877 677.915 468.296 677.375 481.571C676.885 493.579 676.97 505.53 676.935 517.525L676.96 586.335C677.005 594.1 677.59 608.515 677.02 615.54C671.075 618.44 659.585 621.59 652.895 621.675C653.11 614.1 654.71 601.53 655.45 593.545C657.37 572.41 659.46 551.295 661.715 530.2L665.46 493.795C665.825 490.174 667.219 471.182 669.289 469.365C677.499 462.161 698.235 460.46 706.49 454.34C708.405 453.607 711.44 452.876 713.495 452.309Z" fill="#4F7635"/>
<path d="M660.399 453.878C666.824 451.924 673.409 450.45 679.849 448.641C692.174 445.181 702.674 444.02 713.494 452.308C711.439 452.875 708.404 453.606 706.489 454.339C697.189 455.138 683.764 461.254 674.254 463.53C666.384 465.414 650.099 464.919 643.484 460.667L643.659 459.842C645.354 458.799 645.494 458.705 647.349 458.044C650.744 456.576 656.604 455.036 660.399 453.878Z" fill="#A79F2D"/>
<path d="M637.269 493.246C645.089 494.296 650.664 495.656 659.039 496.164L659.049 505.525C650.319 506 645.554 505.25 636.984 503.4C636.954 499.926 637.104 496.718 637.269 493.246Z" fill="#A79F2D"/>
<path d="M610.309 415.898C626.459 417.014 642.909 419.076 659.094 420.409C659.189 424.766 658.924 451.666 659.974 453.615L660.399 453.879C656.604 455.037 650.744 456.577 647.349 458.045C639.054 458.329 631.029 459.358 629.869 468.888C628.869 477.092 628.199 485.259 627.264 493.454C625.429 508.72 623.704 524 622.079 539.29C620.844 551.35 619.734 565.67 617.979 577.565C611.229 576.605 598.514 578.68 591.489 579.955C591.264 573.4 591.569 565.285 591.584 558.61L591.509 525.3C591.539 518.06 591.864 509.23 591.359 502.15C596.069 495.915 598.334 492.172 601.884 485.197C603.444 481.51 605.284 477.457 606.334 473.643C612.474 457.782 611.764 432.79 610.309 415.898Z" fill="#79491B"/>
<path d="M566.144 402.774C567.234 402.215 569.464 401.036 569.959 400.012C574.024 391.484 572.539 380.922 578.634 373.107C581.734 369.135 585.529 369.668 588.459 373.58C590.904 376.842 591.394 379.306 590.814 383.278C589.244 394.015 585.994 401.336 577.144 407.871C578.979 413.538 581.414 423.902 582.924 429.933C585.669 440.885 589.914 455.456 590.804 466.375C594.749 467.873 602.114 471.651 606.334 473.643C605.284 477.458 603.444 481.51 601.884 485.198C595.599 483.18 591.564 481.354 585.709 478.345C581.549 483.751 569.144 501.541 562.849 502.426C561.669 502.591 560.509 502.376 559.624 501.516C558.724 500.651 557.409 497.882 557.499 496.63C557.589 495.335 576.554 470.598 578.784 468.243C577.509 458.042 568.569 420.73 564.039 412.174C553.224 414.041 542.489 413.362 532.574 408.324C524.019 403.977 522.694 391.03 533.404 389.14C538.054 388.32 544.719 391.624 548.969 393.229C555.079 395.661 560.854 398.693 566.144 402.774Z" fill="#683D16"/>
<path d="M564.675 525.5C574.14 519.89 584.08 510.93 590.975 502.445C591.755 527.34 590.825 555.005 591.005 580.16C581.255 583.045 573.02 586.285 565.065 593.075C563.25 594.625 559.88 598.85 558.11 599.905C556.335 599.065 556.24 599.45 553.93 599.66C552.935 588.48 554.36 577.42 553.695 566.755C554.475 560.605 553.96 541.18 553.93 534.235C556.295 532.795 562.32 527.5 564.675 525.5Z" fill="#A86221"/>
<path d="M638.195 584.256C640.2 587.381 639.74 588.991 639.355 592.641C634.84 595.881 611.48 604.791 607.42 598.951L607.61 598.066C613.41 592.131 620.705 588.546 628.73 586.676C631.79 585.966 635.355 585.461 638.195 584.256Z" fill="#683D16"/>
<path d="M642.31 616.925C637.27 617.805 618.015 623.08 614.455 619.83C615.08 616.085 638.855 609.14 640.66 609.46C641.73 612.005 642.865 614.105 642.31 616.925Z" fill="#683D16"/>
<path d="M935.419 156.264C950.179 165.716 947.639 181.967 947.644 197.176L947.589 233.669L947.479 362.433L947.384 706.695L947.404 834.6C947.399 855 947.404 875.685 947.409 896.015C947.409 903.425 946.554 912.155 938.974 915.19C926.819 920.05 904.494 933.115 892.449 935.55C893.494 934.49 894.344 933.51 894.889 932.105C896.499 927.95 895.529 887.215 895.539 879.47L895.669 748.655L896.069 276.788L896.489 215.363C896.504 207.248 896.464 199.127 896.424 191.016C896.394 184.719 892.129 181.287 890.664 176.757C895.444 174.979 902.069 171.671 906.854 169.457L935.419 156.264Z" fill="#87521E"/>
<path d="M799.656 228.78C805.071 227.655 815.926 224.048 821.631 222.344C829.306 223.648 846.306 222.668 851.721 227.445L855.891 226.937C857.646 226.5 861.426 226.499 863.381 226.434C865.846 226.488 866.486 226.105 868.376 227.287C869.956 230.274 868.871 233.974 869.211 238.274C869.191 239.664 869.196 240.907 869.071 242.296L868.916 398.242C864.786 399.518 858.536 401.259 854.271 401.668C845.146 401.66 831.131 403.5 823.771 397.265C818.891 400.244 805.171 399.845 800.116 397.086C797.336 395.571 796.511 394.099 795.601 391.218C789.131 392.9 782.941 394.615 776.291 395.503C743.391 398.826 747.571 387.606 748.001 361.713C748.076 355.098 748.041 348.483 747.896 341.87C747.526 338.779 747.856 330.714 747.876 327.11L748.041 290.771C748.061 284.938 748.371 273.678 747.506 268.27C748.031 265.464 748.066 262.451 748.206 259.582C749.336 251.74 746.336 239.182 750.051 232.38C751.956 228.89 755.356 228.448 758.926 227.577L758.971 228.606C766.146 230.832 781.756 231.756 789.216 230.744C792.746 230.265 796.351 229.27 799.656 228.78Z" fill="#EEB14F"/>
<path d="M826.284 243.484C829.139 242.923 832.449 242.751 835.374 242.599C846.829 242.005 857.924 240.277 869.209 238.275C869.189 239.665 869.194 240.908 869.069 242.297L868.914 398.243C864.784 399.519 858.534 401.26 854.269 401.669C845.144 401.661 831.129 403.501 823.769 397.266C822.739 388.664 823.294 378.829 823.399 370.033L823.509 336.273L823.314 281.973C823.254 272.015 823.014 261.971 823.269 252.019C823.334 249.457 823.309 247.787 824.809 245.626L826.284 243.484Z" fill="#6A8C3D"/>
<path d="M869.07 242.297L868.914 398.243C864.784 399.519 858.535 401.26 854.27 401.669C858.14 394.73 856.495 377.876 856.64 369.507C857.14 343.17 857.274 316.827 857.034 290.486C857.019 278.11 856.9 265.729 856.955 253.354C856.995 244.114 861.17 243.838 869.07 242.297Z" fill="#4F7635"/>
<path d="M748.206 259.583C749.336 251.741 746.336 239.183 750.051 232.381C751.956 228.891 755.356 228.449 758.926 227.578L758.971 228.607C766.146 230.833 781.756 231.757 789.216 230.745C792.746 230.266 796.351 229.271 799.656 228.781C795.911 232.734 784.251 234.705 783.101 236.856C780.311 242.096 780.701 268.227 780.576 273.78L779.336 326.459C779.036 339.556 779.061 352.659 779.401 365.756C779.566 373.252 780.166 381.696 779.701 389.098C779.576 391.157 777.561 393.81 776.291 395.504C743.391 398.827 747.571 387.607 748.001 361.714C748.076 355.099 748.041 348.484 747.896 341.871C747.526 338.78 747.856 330.715 747.876 327.111L748.041 290.772C748.061 284.939 748.371 273.679 747.506 268.271C748.031 265.465 748.066 262.452 748.206 259.583Z" fill="#276988"/>
<path d="M799.654 228.78C805.069 227.655 815.924 224.048 821.629 222.344C829.304 223.648 846.304 222.668 851.719 227.445C838.179 230.173 824.464 232.019 811.009 235.172C803.739 236.876 796.529 238.078 796.119 247.093C795.304 264.953 795.624 282.875 795.384 300.748C795.074 319.527 794.954 338.309 795.024 357.09C795.039 367.785 794.869 380.626 795.599 391.218C789.129 392.9 782.939 394.615 776.289 395.503C777.559 393.809 779.574 391.156 779.699 389.097C780.164 381.695 779.564 373.251 779.399 365.755C779.059 352.658 779.034 339.555 779.334 326.458L780.574 273.779C780.699 268.226 780.309 242.095 783.099 236.855C784.249 234.704 795.909 232.733 799.654 228.78Z" fill="#274554"/>
<path d="M863.38 226.434C865.845 226.488 866.485 226.105 868.375 227.287C869.955 230.274 868.87 233.974 869.21 238.274C857.925 240.276 846.83 242.004 835.375 242.598C832.45 242.75 829.14 242.922 826.285 243.483C831.835 234.835 854.465 232.562 861.14 227.703C860.085 226.91 857.49 227.037 855.89 226.937C857.645 226.5 861.425 226.499 863.38 226.434Z" fill="#D89031"/>
<path d="M659.534 183.762L807.244 199.773L842.709 203.583C849.264 204.279 855.989 204.843 862.454 206.157C865.564 206.79 867.364 209.59 868.949 212.134L869.044 226.015C867.294 226.071 865.034 226.043 863.379 226.435C861.424 226.5 857.644 226.501 855.889 226.938L851.719 227.446C846.304 222.669 829.304 223.649 821.629 222.345C815.924 224.049 805.069 227.656 799.654 228.781C796.349 229.271 792.744 230.266 789.214 230.745C781.754 231.757 766.144 230.833 758.969 228.607L758.924 227.578C755.354 228.449 751.954 228.891 750.049 232.381C746.334 239.183 749.334 251.741 748.204 259.583C748.064 262.452 748.029 265.465 747.504 268.271C748.369 273.679 748.059 284.939 748.039 290.772L747.874 327.111C747.854 330.715 747.524 338.78 747.894 341.871C748.039 348.484 748.074 355.099 747.999 361.714L740.814 361.149C732.264 374.501 719.249 385.579 702.794 386.209C694.509 386.4 683.989 384.958 678.119 378.251C674.389 373.99 674.729 369.342 675.199 364.089C669.874 364.857 665.659 365.543 660.359 366.84L659.914 366.423C659.294 363.975 659.524 353.392 659.524 350.263L659.529 318.371L659.534 183.762Z" fill="#683D16"/>
<path d="M726.235 232.129C730.535 234.114 742.545 236.816 748.105 238.816C748.105 245.082 747.86 253.491 748.205 259.582C748.065 262.451 748.03 265.463 747.505 268.269C748.37 273.677 748.06 284.938 748.04 290.771L747.875 327.11C747.855 330.714 747.525 338.779 747.895 341.869C748.04 348.482 748.075 355.098 748 361.712L740.815 361.147C732.265 374.5 719.25 385.578 702.795 386.208C694.51 386.399 683.99 384.957 678.12 378.249C674.39 373.988 674.73 369.341 675.2 364.087C675.815 361.251 676.71 358.658 677.7 355.937C687.715 328.448 700.595 301.996 710.265 274.376C714.45 262.41 717.43 249.877 721.845 237.972C722.875 235.191 724.04 234.022 726.235 232.129Z" fill="#429688"/>
<path d="M702.795 386.208C707.18 374.924 710.775 363.302 715.445 352.134C727.055 324.393 737.495 296.629 747.505 268.27C748.37 273.678 748.06 284.938 748.04 290.771L747.875 327.11C747.855 330.714 747.525 338.779 747.895 341.87C748.04 348.483 748.075 355.098 748 361.713L740.815 361.148C732.265 374.5 719.25 385.578 702.795 386.208Z" fill="#357264"/>
<path d="M740.814 361.147C744.314 354.554 745.504 345.914 747.894 341.869C748.039 348.482 748.074 355.098 747.999 361.712L740.814 361.147Z" fill="#683D16"/>
<path d="M775.526 221.259C781.271 220.099 793.226 215.03 797.891 217.312C806.661 218.434 813.166 219.277 821.631 222.345C815.926 224.049 805.071 227.656 799.656 228.781C796.351 229.271 792.746 230.266 789.216 230.745C781.756 231.757 766.146 230.833 758.971 228.607L758.926 227.578C762.731 226.482 773.456 223.933 775.526 221.259Z" fill="#618687"/>
<path d="M775.526 221.259C781.271 220.099 793.226 215.03 797.891 217.312C785.146 221.828 772.151 225.599 758.971 228.607L758.926 227.578C762.731 226.482 773.456 223.933 775.526 221.259Z" fill="#276988"/>
<path d="M726.234 232.13C737.824 224.912 761.324 218.942 775.524 221.259C773.454 223.933 762.729 226.481 758.924 227.578C755.354 228.449 751.954 228.89 750.049 232.381C746.334 239.183 749.334 251.741 748.204 259.583C747.859 253.492 748.104 245.083 748.104 238.817C742.544 236.817 730.534 234.115 726.234 232.13Z" fill="#338577"/>
<path d="M847.88 704.016C847.8 706.611 847.49 710.601 848.435 712.911C854.79 710.726 862.405 708.651 868.925 706.711L868.88 708.701L868.95 721.766C868.915 736.846 869.331 876.386 868.466 878.201C862.786 880.136 857.575 882.001 851.555 882.666C843.285 883.601 827.4 883.516 820.885 877.296C818.365 874.896 818.405 872.206 818.47 868.956C811.085 870.296 799.665 875.491 791.845 875.561C784.47 876.696 771.275 876.586 764.625 872.626C761.155 870.556 760.375 868.926 759.415 865.266L759.365 775.031C759.35 759.096 759.41 743.146 759.61 727.216C759.735 717.306 763.295 715.951 771.765 713.266L772.211 716.116C774.666 718.106 789.1 720.261 792.91 720.236C795.52 720.216 798.97 718.171 802.17 718.806C802.935 718.736 811.646 715.481 812.961 715.051C824.561 711.251 836.115 707.276 847.88 704.016Z" fill="#D89031"/>
<path d="M759.415 865.266L759.365 775.031C759.35 759.096 759.41 743.146 759.61 727.216C759.735 717.306 763.295 715.951 771.765 713.266L772.211 716.116C774.666 718.106 789.1 720.261 792.91 720.236C795.52 720.216 798.97 718.171 802.17 718.806C799.695 720.001 795.97 720.891 795.485 723.256C793.7 731.966 794.661 744.871 794.656 753.966L794.5 828.981C794.5 842.171 794.72 855.966 794.18 869.121C794.07 871.856 793.345 873.386 791.845 875.561C784.47 876.696 771.275 876.586 764.625 872.626C761.155 870.556 760.375 868.926 759.415 865.266Z" fill="#D89031"/>
<path d="M847.881 704.016C847.801 706.611 847.491 710.601 848.436 712.911C843.086 714.651 823.191 720.351 821.571 723.176C818.396 728.711 819.221 760.176 819.081 766.711C818.371 800.871 819.491 834.991 818.471 868.956C811.086 870.296 799.666 875.491 791.846 875.561C793.346 873.386 794.071 871.856 794.181 869.121C794.721 855.966 794.501 842.171 794.501 828.981L794.656 753.966C794.661 744.871 793.701 731.966 795.486 723.256C795.971 720.891 799.696 720.001 802.171 718.806C802.936 718.736 811.646 715.481 812.961 715.051C824.561 711.251 836.116 707.276 847.881 704.016Z" fill="#A86221"/>
<path d="M868.95 721.766C868.915 736.846 869.33 876.386 868.465 878.201C862.785 880.136 857.575 882.001 851.555 882.666C852.84 880.351 853.9 878.286 853.985 875.591C854.415 862.661 854.315 849.181 854.375 836.256L854.825 752.776C854.91 746.851 854.35 730.116 855.8 725.766C859.71 725.001 864.835 722.921 868.95 721.766Z" fill="#D8712C"/>
<path d="M831.215 721.649C838.775 717.904 860.38 711.424 868.88 708.699L868.95 721.764C864.835 722.919 859.71 724.999 855.8 725.764C853.725 724.219 835.27 722.184 831.215 721.649Z" fill="#EEB14F"/>
<path d="M727.62 696.731C728.515 696.561 728.11 696.571 729.09 696.686C738.055 697.766 753.295 690.081 763.26 688.346C765.155 688.016 767.365 687.616 769.05 688.761C774.665 690.836 783.03 693.381 789.025 694.611C790.985 694.661 791.12 694.736 793.06 695.246C797.72 697.851 796.61 700.856 796.325 705.606C787.975 707.821 780.07 710.926 771.765 713.266C763.295 715.951 759.735 717.306 759.61 727.216C759.41 743.146 759.35 759.096 759.365 775.031L759.415 865.266C754.265 867.126 745.845 869.831 740.54 870.046C731.655 870.031 717.21 871.846 709.765 865.141C704.99 860.836 706.105 850.406 706.2 844.271C696.93 848.571 667.555 860.681 658.25 860.526C647.45 859.931 630.47 856.896 629.215 843.686C632.45 830.736 637.81 820.496 643.575 808.631C648.965 797.646 654.295 786.626 659.56 775.581C668.62 759.221 679.905 731.896 690.465 718.016C696.965 717.056 700.59 719.426 706.425 722.246C706.495 717.196 705.01 707.986 709.74 704.786C713.355 702.336 724.955 700.421 727.81 697.716L727.62 696.731Z" fill="#3C4858"/>
<path d="M690.465 718.016C696.965 717.056 700.59 719.426 706.425 722.246C706.45 728.311 707.145 757.206 705.625 761.441C706.53 765.516 706.315 775.276 706.34 779.996C706.395 794.376 706.33 808.751 706.14 823.126C706.11 828.151 706.59 840.276 706.2 844.271C696.93 848.571 667.555 860.681 658.25 860.526C647.45 859.931 630.47 856.896 629.215 843.686C632.45 830.736 637.81 820.496 643.575 808.631C648.965 797.646 654.295 786.626 659.56 775.581C668.62 759.221 679.905 731.896 690.465 718.016Z" fill="#357264"/>
<path d="M671.185 829.334C673.57 826.759 680.41 811.019 682.415 807.114C689.875 792.619 697.195 775.204 705.625 761.439C706.53 765.514 706.315 775.274 706.34 779.994C706.395 794.374 706.33 808.749 706.14 823.124C706.11 828.149 706.59 840.274 706.2 844.269C696.93 848.569 667.555 860.679 658.25 860.524C659.945 852.609 664.08 847.109 666.46 839.639C667.63 836.404 669.65 832.504 671.185 829.334Z" fill="#2F5650"/>
<path d="M640.541 819.631C646.286 822.116 651.831 823.811 657.821 825.441C661.521 826.446 667.956 827.751 671.186 829.336C669.651 832.506 667.631 836.406 666.461 839.641C657.526 838.686 642.886 835.246 635.336 830.681C637.046 826.636 638.531 823.536 640.541 819.631Z" fill="#7D9F73"/>
<path d="M793.059 695.244C797.719 697.849 796.609 700.854 796.324 705.604C787.974 707.819 780.069 710.924 771.764 713.264C763.294 715.949 759.734 717.304 759.609 727.214C759.409 743.144 759.349 759.094 759.364 775.029L759.414 865.264C754.264 867.124 745.844 869.829 740.539 870.044C741.934 868.749 742.744 867.554 743.899 866.029C744.399 856.464 744.039 844.264 744.119 834.444L744.159 754.814C744.159 748.514 742.934 713.679 746.664 711.624C758.994 704.844 780.334 702.379 792.489 695.569L793.059 695.244Z" fill="#274554"/>
<path d="M769.05 688.76C774.665 690.835 783.03 693.38 789.025 694.61C783.99 698.17 753.37 705.185 746.36 708.29C743.375 709.61 720.615 705.425 715.25 704.665C731.915 700.9 752.71 693.935 769.05 688.76Z" fill="#7F7F7B"/>
<path d="M591.464 361.959C590.824 350.83 591.424 337.62 591.439 326.347L591.519 257.488L591.569 211.387C591.579 202.619 591.369 193.732 592.019 184.994C592.399 179.024 598.11 177.42 603.215 177.942C621.825 179.846 641.009 181.421 659.534 183.76L659.53 318.37L659.524 350.262C659.524 353.39 659.294 363.974 659.914 366.421L660.359 366.838C641.749 371.741 620.104 376.837 602.004 382.511L600.874 381.826C598.794 377.591 591.459 365.801 591.464 361.959Z" fill="#79491B"/>
<path d="M616.36 653.885C621.295 654.16 655.795 657.395 659.89 658.77C659.665 659.11 659.44 659.45 659.22 659.79C659.505 691.665 657.96 746.12 659.56 775.58C654.295 786.625 648.965 797.645 643.575 808.63C637.81 820.495 632.45 830.735 629.215 843.685C622.925 845.545 598.945 854.34 594.045 857.265C592.135 855.815 591.27 855.385 591.155 852.85C590.875 846.5 590.995 840.1 591.01 833.735L591.065 796.7L590.965 669.455C599.45 663.88 607.01 660.475 616.36 653.885Z" fill="#79491B"/>
<path d="M811.081 457.881C820.206 456.91 831.906 455.926 838.246 463.915C839.276 467.011 839.271 470.254 839.48 473.542C837.576 474.223 832.815 475.719 831.48 476.793L828.156 477.835C823.441 478.742 818.141 479.632 815.136 483.773C811.941 488.171 812.946 503.594 813.451 509.014L813.545 515.739C812.845 540.224 813.646 564.859 813.556 589.364C813.536 593.819 813.616 598.294 813.801 602.749C813.851 606.964 813.966 611.349 813.906 615.549C813.901 619.824 813.841 624.099 813.716 628.369C803.636 631.604 796.085 633.464 785.48 634.924C782.82 635.199 780.145 635.349 777.47 635.364C771.4 635.379 760.081 634.979 755.886 630.259C752.046 625.939 752.796 620.874 752.906 615.574C751.796 584.519 752.446 548.944 752.336 517.519L754.386 516.544C754.561 512.304 754.45 507.164 754.475 502.849C752.05 501.799 752.625 499.48 752.42 496.95C751.2 474.688 749.97 474.976 770.545 468.555C775.635 466.477 805.951 458.289 811.081 457.881Z" fill="#357264"/>
<path d="M754.475 502.85C765.23 504.09 775.31 506.18 786.195 507.195C786.17 509.285 786.075 511.69 786.125 513.75C786.525 519.92 786.52 526.29 786.47 532.485C786.295 554.645 786.815 576.92 786.39 599.075L786.465 611.935C786.58 618.71 787.41 628.915 785.48 634.925C782.82 635.2 780.145 635.35 777.47 635.365C771.4 635.38 760.08 634.98 755.885 630.26C752.045 625.94 752.795 620.875 752.905 615.575C751.795 584.52 752.445 548.945 752.335 517.52L754.385 516.545C754.56 512.305 754.45 507.165 754.475 502.85Z" fill="#429688"/>
<path d="M754.475 502.85C765.23 504.09 775.31 506.18 786.195 507.195C786.17 509.285 786.075 511.69 786.125 513.75C786.125 516.19 786.09 518.705 786.16 521.14C776.325 521.695 763.57 520.235 754.385 516.545C754.56 512.305 754.45 507.165 754.475 502.85Z" fill="#7D9F73"/>
<path d="M756.241 597.304C760.501 596.869 781.391 598.524 786.391 599.074L786.466 611.934C774.571 612.254 767.286 612.664 755.981 609.059C755.911 605.139 755.996 601.219 756.241 597.304Z" fill="#7D9F73"/>
<path d="M811.081 457.881C820.206 456.91 831.906 455.926 838.246 463.915L835.146 464.95L834.391 465.268C821.191 470.754 806.206 473.496 792.831 478.477C790.886 479.201 787.451 481.608 786.836 483.844C785.536 491.039 787.081 499.846 786.196 507.194C775.311 506.179 765.23 504.089 754.475 502.849C752.05 501.799 752.625 499.48 752.42 496.95C751.2 474.688 749.97 474.976 770.545 468.555C775.635 466.477 805.951 458.289 811.081 457.881Z" fill="#429688"/>
<path d="M811.079 457.881C820.204 456.91 831.904 455.926 838.244 463.915L835.144 464.95C831.054 464.304 827.519 466.285 823.299 467.269C810.069 470.356 794.364 476.504 780.919 476.84C776.174 476.958 766.399 474.633 761.939 473.533C771.119 471.7 780.734 468.169 789.764 465.487C793.589 464.35 808.999 460.182 811.079 457.881Z" fill="#7D9F73"/>
<path d="M831.48 476.793C833.08 476.715 843.945 473.192 846.46 472.535C853.995 470.566 861.365 468.898 868.975 467.203C868.97 469.691 869.135 478.939 868.84 480.876C869.955 500.409 868.395 521.159 868.845 540.809C869 547.724 868.555 554.839 868.605 561.794C868.815 579.019 868.915 596.244 868.915 613.469C868.925 617.014 869.22 631.979 868.835 634.484C862.655 636.464 854.11 639.534 847.82 640.079C840.07 642.979 823.375 641.679 816.725 636.204C813.91 633.889 813.92 631.739 813.715 628.369C813.84 624.099 813.9 619.824 813.905 615.549C813.965 611.349 813.85 606.964 813.8 602.749C813.615 598.294 813.535 593.819 813.555 589.364C813.645 564.859 812.845 540.224 813.545 515.739L813.45 509.014C812.945 503.594 811.94 488.171 815.135 483.773C818.14 479.632 823.44 478.742 828.155 477.835L831.48 476.793Z" fill="#D05441"/>
<path d="M868.84 480.877C869.955 500.41 868.395 521.16 868.845 540.81C869 547.725 868.555 554.84 868.605 561.795C868.815 579.02 868.915 596.245 868.915 613.47C868.925 617.015 869.22 631.98 868.835 634.485C862.655 636.465 854.11 639.535 847.82 640.08C849.205 638.325 850.18 636.58 850.275 634.325C850.73 623.575 850.69 612.135 850.83 601.375C851.35 576.29 851.515 551.195 851.325 526.1C851.275 515.735 850.46 500.195 852.345 490.119C852.94 486.945 859.385 485.334 862.675 483.557L863.11 483.319C865.125 482.549 866.885 481.756 868.84 480.877Z" fill="#B14434"/>
<path d="M831.481 476.793C833.081 476.715 843.946 473.192 846.461 472.535C853.996 470.566 861.366 468.898 868.976 467.203C868.971 469.691 869.136 478.939 868.841 480.876C866.886 481.755 865.126 482.548 863.111 483.318C861.316 483.569 858.871 483.925 857.241 484.657C852.171 486.935 827.571 483.755 825.086 480.696C825.581 479.373 826.791 478.865 828.156 477.835L831.481 476.793Z" fill="#D8712C"/>
<path d="M813.801 602.75C825.386 605.71 833.911 607.605 846.086 606.685C846.331 610.945 846.471 614.58 846.461 618.84C836.941 620.35 822.796 619.225 813.906 615.55C813.966 611.35 813.851 606.965 813.801 602.75Z" fill="#D8712C"/>
<path d="M813.449 509.015C815.934 507.755 817.039 508.475 819.764 509.07C828.399 510.955 837.414 511.985 846.259 511.75C846.359 515.4 846.524 519.21 846.519 522.845C838.624 523.755 822.919 524.565 815.399 520.29C813.769 519.36 813.759 517.525 813.544 515.74L813.449 509.015Z" fill="#D8712C"/>
<path d="M568.301 139.56C581.761 135.248 602.376 132.306 616.601 128.983C626.636 126.637 642.216 123.589 652.161 122.365C655.496 121.955 673.541 124.075 678.296 124.528L733.536 129.935L844.851 141.346C867.781 143.763 890.931 146.004 913.771 149.214C921.166 150.253 929.096 152.129 935.421 156.263L906.856 169.457C902.071 171.67 895.446 174.978 890.666 176.756C883.301 174.846 872.066 173.891 864.221 173.041L826.071 168.857L669.101 151.667L611.656 145.734C604.586 145.008 571.496 142.27 568.301 139.56Z" fill="#BB7B39"/>
<path d="M659.89 658.77C678.19 660.375 862.405 680.375 867.03 682.87C869.9 686.67 869.27 701.325 868.925 706.71C862.405 708.65 854.79 710.724 848.435 712.909C847.49 710.599 847.8 706.61 847.88 704.015C836.115 707.275 824.56 711.25 812.96 715.049C811.645 715.479 802.935 718.735 802.17 718.805C798.97 718.17 795.52 720.214 792.91 720.234C789.1 720.259 774.665 718.105 772.21 716.115L771.765 713.265C780.07 710.925 787.975 707.819 796.325 705.604C796.61 700.854 797.72 697.85 793.06 695.245C791.12 694.735 790.985 694.659 789.025 694.609C783.03 693.379 774.665 690.835 769.05 688.76C767.365 687.615 765.155 688.014 763.26 688.344C753.295 690.079 738.055 697.765 729.09 696.685C728.11 696.57 728.515 696.559 727.62 696.729L727.81 697.715C724.955 700.42 713.355 702.334 709.74 704.784C705.01 707.984 706.495 717.195 706.425 722.245C700.59 719.425 696.965 717.055 690.465 718.015C679.905 731.895 668.62 759.22 659.56 775.58C657.96 746.12 659.505 691.664 659.22 659.789C659.44 659.449 659.665 659.11 659.89 658.77Z" fill="#683D16"/>
<path d="M825.561 697.796C831.991 696.276 844.111 698.026 847.881 704.016C836.116 707.276 824.561 711.251 812.961 715.051C811.646 715.481 802.936 718.736 802.171 718.806C798.971 718.171 795.521 720.216 792.911 720.236C789.101 720.261 774.666 718.106 772.211 716.116L771.766 713.266C780.071 710.926 787.976 707.821 796.326 705.606C803.706 703.286 818.366 698.456 825.561 697.796Z" fill="#EEB14F"/>
<path d="M796.326 705.605C803.706 703.285 818.366 698.455 825.561 697.795C823.136 700.1 812.231 702.825 808.266 704.015C799.316 706.64 790.431 709.47 781.616 712.505C779.571 713.2 773.781 714.99 772.211 716.115L771.766 713.265C780.071 710.925 787.976 707.82 796.326 705.605Z" fill="#D89031"/>
<path d="M727.62 696.73L727.81 697.716C724.955 700.421 713.355 702.335 709.74 704.785C705.01 707.985 706.495 717.195 706.425 722.245C700.59 719.425 696.965 717.056 690.465 718.016C692.815 714.411 694.895 709.81 696.755 705.875C701.13 703.875 723.28 697.205 727.62 696.73Z" fill="#2F5650"/>
<path d="M659.096 420.408C717.326 426.036 775.506 432.222 833.621 438.966C840.181 439.718 860.226 441.806 867.516 443.198C867.766 443.455 868.016 443.712 868.261 443.969C869.551 448.192 869.026 461.937 868.976 467.203C861.366 468.898 853.996 470.566 846.461 472.535C843.946 473.192 833.081 476.715 831.481 476.793C832.816 475.719 837.576 474.223 839.481 473.542C839.271 470.254 839.276 467.011 838.246 463.915C831.906 455.926 820.206 456.91 811.081 457.881C805.951 458.289 775.636 466.477 770.546 468.555C770.591 465.388 770.656 463.689 769.351 460.801L768.516 459.847C757.481 449.269 737.786 455.36 725.136 458.474C722.466 459.018 717.421 459.905 715.006 460.658C714.956 457.594 715.176 454.838 713.496 452.308C702.676 444.02 692.176 445.181 679.851 448.641C673.411 450.45 666.826 451.924 660.401 453.878L659.976 453.614C658.926 451.665 659.191 424.765 659.096 420.408Z" fill="#683D16"/>
<path d="M594.045 857.266C598.945 854.341 622.925 845.546 629.215 843.686C630.47 856.896 647.45 859.931 658.25 860.526C667.555 860.681 696.93 848.571 706.2 844.271C706.105 850.406 704.99 860.836 709.765 865.141C717.21 871.846 731.655 870.031 740.54 870.046C745.845 869.831 754.265 867.126 759.415 865.266C760.375 868.926 761.155 870.556 764.625 872.626C771.275 876.586 784.47 876.696 791.845 875.561C799.665 875.491 811.085 870.296 818.47 868.956C818.405 872.206 818.365 874.896 820.885 877.296C827.4 883.516 843.285 883.601 851.555 882.666C857.575 882.001 862.785 880.136 868.465 878.201C869.345 879.691 869.18 884.301 869.09 886.131C869.01 887.851 867.74 890.256 866.22 891.291C864.705 892.321 862.56 891.931 860.655 891.696C835.095 888.521 809.455 885.306 783.93 881.871L697.71 870.776C674.505 867.896 651.32 864.886 628.15 861.736C618.56 860.496 602.895 859.256 594.045 857.266Z" fill="#87521E"/>
<path d="M289.783 323.512C280.621 307.596 278.824 284.797 293.634 271.6C299.588 266.209 307.523 263.548 315.524 264.257C331.801 265.554 344.334 278.164 351.474 291.996C352.539 294.06 355.288 301.445 356.403 302.331C411.155 295.559 470.757 300.597 522.846 319.332C530.111 321.945 544.096 327.289 550.561 331.176C530.921 336.759 511.656 347.525 501.081 365.762C485.951 391.849 494.485 418.004 500.126 444.882C510.426 493.933 509.221 515.409 564.676 525.499C562.321 527.499 556.296 532.794 553.931 534.234C549.436 537.244 545.271 540.579 540.621 543.654C528.936 551.384 516.631 558.144 503.836 563.864C500.821 565.214 493.222 568.504 490.274 569.349C489.874 571.144 489.369 573.839 488.793 575.504C512.906 576.549 530.966 574.844 553.696 566.754C554.361 577.419 552.936 588.479 553.931 599.659C556.241 599.449 556.336 599.064 558.111 599.904C557.541 608.899 572.486 666.029 576.481 676.539C568.896 681.229 561.936 686.884 553.941 691.864C533.501 702.079 527.701 706.644 505.146 714.089C498.297 716.374 491.369 718.419 484.375 720.219C480.943 721.084 475.094 722.214 471.976 723.244C466.717 746.484 459.735 763.404 452.111 785.269C450.577 789.659 448.775 795.279 447.115 799.529C451.548 801.254 456.778 802.774 460.945 804.759C473.124 810.559 483.328 820.459 488.842 832.839C491.624 839.089 494.051 849.739 491.473 856.164C489.509 861.059 483.921 864.394 479.132 866.094C450.282 876.334 409.129 872.194 379.917 865.084C374.841 868.364 367.496 872.999 362.01 875.494C362.065 890.599 359.135 893.499 344.966 898.119C339.191 899.869 334.692 900.954 328.868 902.449C305.407 907.974 271.839 902.979 247.887 900.629C241.455 899.999 234.937 898.724 228.46 898.289C202.943 895.974 176.756 894.104 152.817 884.184C57.0579 844.504 72.1834 710.074 105.924 634.054C117.492 608.624 131.958 584.609 149.034 562.494C156.857 552.229 164.775 543.664 173.038 534.184C179.707 526.534 194.683 512.654 198.292 504.754C201.939 496.772 202.809 474.757 204.37 464.563C207.783 442.26 211.004 421.896 219.557 400.823C212.114 396.786 207.058 393.497 201.244 387.215C185.48 370.182 184.024 336.724 202.991 321.131C209.407 315.936 217.606 313.466 225.824 314.251C243.479 315.82 255.509 327.337 266.204 340.035C272.485 333.333 281.904 328.05 289.783 323.512Z" fill="#D08D46"/>
<path d="M296.179 819.665C302.423 819.58 309.27 819.97 315.186 822.175C338.027 829.3 353.001 844.59 359.931 867.76C360.621 870.065 361.185 873.425 362.009 875.495C362.064 890.6 359.135 893.5 344.965 898.12C339.19 899.87 334.691 900.955 328.867 902.45C305.406 907.975 271.838 902.98 247.886 900.63C241.454 900 234.936 898.725 228.459 898.29L230.046 898.225C230.266 898.06 230.486 897.895 230.706 897.725C230.351 894.935 230.134 890.11 230.274 887.53C230.97 874.715 236.539 860.34 244.319 850.185C258.327 831.895 273.818 823.05 296.179 819.665Z" fill="#835531"/>
<path d="M328.867 902.45C329.72 892.875 326.822 881.12 321.909 872.81C319.792 869.23 315.41 865.73 315.858 861.635C316.438 860.575 317.04 859.9 318.24 859.6C326.55 857.85 331.045 865.29 334.716 870.985C340.579 880.08 340.353 887.715 342.819 897.315L344.966 898.12C339.19 899.87 334.691 900.955 328.867 902.45Z" fill="#683D16"/>
<path d="M219.556 400.824C212.113 396.787 207.057 393.498 201.243 387.216C185.479 370.184 184.023 336.726 202.99 321.132C209.406 315.937 217.605 313.467 225.823 314.252C243.478 315.821 255.508 327.339 266.203 340.037C269.54 344.459 271.228 347.261 273.512 352.356C266.455 362.735 262.72 368.526 257.51 380.108C255.956 384.865 254.736 388.52 253.683 393.443L252.222 399.021C240.18 403.586 232.112 404.453 219.556 400.824Z" fill="#835531"/>
<path d="M253.682 393.442C244.298 391.283 236.029 383.595 229.159 376.352C224.222 372.784 211.968 352.284 219.787 347.848C232.875 340.42 253.981 374.384 257.51 380.107C255.955 384.864 254.735 388.519 253.682 393.442Z" fill="#4E3420"/>
<path d="M379.916 865.085C399.17 852.305 416.115 836.355 430.029 817.905C434.371 812.21 438.092 805.605 442.491 800.07C443.448 798.87 445.637 799.4 447.114 799.53C451.547 801.255 456.777 802.775 460.944 804.76C473.123 810.56 483.327 820.46 488.841 832.84C491.623 839.09 494.05 849.739 491.472 856.164C489.508 861.059 483.92 864.394 479.131 866.094C450.281 876.334 409.128 872.195 379.916 865.085Z" fill="#835531"/>
<path d="M462.298 870.379C463.219 862.84 461.233 853.483 457.567 846.794C455.988 843.912 452.618 841.036 453.077 837.813C453.562 836.991 454.055 836.474 455.011 836.268C461.618 835.1 464.976 841.091 467.728 845.683C472.124 853.016 471.748 859.039 473.448 866.684L475.123 867.375C470.517 868.608 466.936 869.349 462.298 870.379Z" fill="#683D16"/>
<path d="M289.782 323.512C280.62 307.596 278.823 284.797 293.633 271.6C299.587 266.209 307.522 263.548 315.523 264.257C331.8 265.554 344.333 278.164 351.473 291.996C352.538 294.06 355.287 301.445 356.402 302.331C349.186 303.743 342.005 304.737 334.776 306.313C317.988 309.973 304.993 316.008 289.782 323.512Z" fill="#835531"/>
<path d="M397.568 722.645C426.584 728.61 443.183 727.515 471.975 723.245C466.716 746.485 459.734 763.405 452.11 785.27C431.668 773.38 408.825 743.455 397.568 722.645Z" fill="#BB7B39"/>
<path d="M488.793 575.506C512.906 576.551 530.966 574.846 553.696 566.756C554.361 577.421 552.936 588.481 553.931 599.661C532.486 603.241 508.411 604.576 486.668 604.476C485.551 604.231 484.716 604.006 483.618 603.686C482.058 600.426 487.519 579.526 488.793 575.506Z" fill="#AD7529"/>
<path d="M277.416 721.135C312.716 732.71 333.36 789.105 315.187 822.175C309.27 819.97 302.423 819.58 296.18 819.665C305.062 795.13 306.528 773.9 295.555 749.295C290.572 738.12 283.685 730.965 277.416 721.135Z" fill="#BB7B39"/>
<path d="M411.92 585.67C443.056 582.95 460.852 579.155 490.273 569.35C489.873 571.145 489.368 573.84 488.792 575.505C487.518 579.525 482.057 600.425 483.617 603.685C484.715 604.005 485.55 604.23 486.667 604.475C463.595 605.12 430.757 599.15 411.92 585.67Z" fill="#BB7B39"/>
<path d="M366.06 377.508C391.261 374.191 414.33 392.064 417.414 417.294C420.497 442.525 402.412 465.427 377.155 468.278C352.224 471.092 329.683 453.292 326.639 428.389C323.595 403.486 341.186 380.781 366.06 377.508Z" fill="#FAF9ED"/>
<path d="M379.78 387.705C419.788 389.002 423.024 448.594 382.752 452.269C375.376 452.025 369.574 450.432 363.638 445.74C356.578 440.133 352.081 431.914 351.164 422.945C349.291 404.564 361.074 389.223 379.78 387.705Z" fill="#191916"/>
</svg>
