<svg width="1024" height="1024" viewBox="0 0 1024 1024" fill="none" xmlns="http://www.w3.org/2000/svg">
<g clip-path="url(#clip0_240_129)">
<path d="M373.971 240.048C374.97 232.751 375.882 227.158 378.768 220.314C390.942 191.442 416.338 189.332 434.854 214.085C452.811 220.975 460.384 230.339 462.446 249.894C525.274 210.691 629.909 195.559 701.769 212.807C758.799 226.497 808.419 257.334 839.384 307.976C863.939 348.14 878.874 400.76 867.879 447.255C864.909 459.614 859.984 471.419 853.289 482.223C867.629 496.779 874.729 518.206 848.469 524.671C852.209 526.021 855.334 526.031 858.829 526.931C865.374 528.176 869.209 533.431 867.804 540.196C866.299 547.466 857.524 548.146 851.459 549.191C848.759 555.571 846.124 561.706 845.274 568.676C844.589 577.396 844.154 601.821 849.849 608.511C858.644 608.831 869.749 607.831 868.674 620.391C867.759 631.101 842.609 633.566 834.194 635.296C830.824 640.666 827.924 645.516 826.734 651.866C824.694 661.176 823.404 682.401 827.649 690.626C835.674 691.746 847.014 690.441 850.124 698.756C856.644 699.516 860.379 700.011 866.029 703.746C868.909 707.021 870.974 711.156 870.614 715.636C870.364 719.006 868.704 722.111 866.049 724.196C862.524 726.946 857.619 727.661 853.269 728.561C850.309 735.166 848.084 741.721 847.394 748.976C845.944 760.276 846.114 769.701 848.169 780.946C848.729 784.006 850.294 788.721 850.654 790.846C856.174 791.811 864.694 792.001 868.219 796.956C870.034 799.506 870.484 803.586 869.759 806.571C869.214 808.831 867.614 811.406 865.579 812.611C859.019 816.496 803.364 826.651 791.719 829.071C744.754 838.946 697.714 848.481 650.604 857.666C627.014 862.346 599.444 868.561 575.994 872.181C572.079 872.801 568.099 872.871 564.164 872.381C550.389 871.566 536.009 868.636 522.279 866.926C517.839 866.371 512.499 865.656 508.159 864.711C503.599 864.321 497.127 863.131 492.465 862.416C465.304 859.076 435.678 854.001 408.397 849.836L252.731 826.286C246.86 825.436 240.995 824.546 235.137 823.606C214.746 819.916 192.726 822.111 183.595 799.511C173.187 773.751 174.614 727.686 203.977 714.781C211.507 711.591 226.521 708.266 234.703 706.876C220.587 685.671 222.306 645.261 244.335 629.736C254.546 623.511 273.705 622.041 286.059 619.951C278.346 608.371 277.98 594.866 279.16 581.541C280.033 576.246 281.26 571.011 282.832 565.876C266.868 566.011 256.917 565.386 241.284 561.846C236.862 560.741 232.606 559.131 228.311 557.606C227.184 557.136 226.065 556.651 224.954 556.151C202.27 545.861 189.883 531.521 181.11 508.221C170.326 479.586 164.985 449.903 171.635 419.516C172.749 414.43 174.436 407.721 176.551 403.1C183.694 373.306 206.173 332.146 225.318 308.184C230.43 301.786 237.466 294.865 243.293 289.106C235.149 270.235 231.893 255.219 242.095 235.797C250.775 219.272 271.834 210.202 288.718 220.277C299.773 226.874 304.679 238.35 307.757 250.376C310.961 249.715 319.222 246.354 323.398 245.228C341.367 240.384 355.645 239.449 373.971 240.048Z" fill="#D08D46"/>
<path d="M244.336 629.734C254.547 623.509 273.706 622.039 286.06 619.949C289.664 624.449 293.042 627.574 298.847 629.114C310.082 632.084 322.634 633.249 334.194 634.784L383.648 641.489L538.071 661.989C545.606 662.979 591.046 669.024 595.496 671.399C603.026 671.639 610.181 673.474 617.776 673.604C627.831 675.524 644.436 671.094 654.751 669.094L697.916 660.919L834.196 635.294C830.826 640.664 827.926 645.514 826.736 651.864C824.696 661.174 823.406 682.399 827.651 690.624C835.676 691.744 847.016 690.439 850.126 698.754C856.646 699.514 860.381 700.009 866.031 703.744C868.911 707.019 870.976 711.154 870.616 715.634C870.366 719.004 868.706 722.109 866.051 724.194C862.526 726.944 857.621 727.659 853.271 728.559C850.311 735.164 848.086 741.719 847.396 748.974C845.946 760.274 846.116 769.699 848.171 780.944C848.731 784.004 850.296 788.719 850.656 790.844C856.176 791.809 864.696 791.999 868.221 796.954C870.036 799.504 870.486 803.584 869.761 806.569C869.216 808.829 867.616 811.404 865.581 812.609C859.021 816.494 803.366 826.649 791.721 829.069C744.756 838.944 697.716 848.479 650.606 857.664C627.016 862.344 599.446 868.559 575.996 872.179C572.081 872.799 568.101 872.869 564.166 872.379C550.391 871.564 536.011 868.634 522.281 866.924C517.841 866.369 512.501 865.654 508.161 864.709C503.601 864.319 497.129 863.129 492.467 862.414C465.306 859.074 435.679 853.999 408.398 849.834L252.733 826.284C246.861 825.434 240.996 824.544 235.139 823.604C214.747 819.914 192.727 822.109 183.597 799.509C173.189 773.749 174.615 727.684 203.978 714.779C211.508 711.589 226.522 708.264 234.705 706.874C220.588 685.669 222.307 645.259 244.336 629.734Z" fill="#EA6C3F"/>
<path d="M244.336 629.734C254.547 623.509 273.706 622.039 286.06 619.949C289.664 624.449 293.042 627.574 298.847 629.114C310.082 632.084 322.634 633.249 334.193 634.784L383.648 641.489L538.07 661.989C545.605 662.979 591.045 669.024 595.495 671.399C603.025 671.639 610.18 673.474 617.775 673.604C627.83 675.524 644.435 671.094 654.75 669.094L697.915 660.919L834.195 635.294C830.825 640.664 827.925 645.514 826.735 651.864C824.695 661.174 823.405 682.399 827.65 690.624C835.675 691.744 847.015 690.439 850.125 698.754C849.635 701.099 848.63 703.769 846.465 705.069C841.375 708.129 789.685 716.099 780.625 717.709L642.705 742.179L586.2 752.244C575.43 754.169 551.21 759.724 541.155 757.644C536.4 757.449 529.35 756.309 524.5 755.659L496.069 751.744L407.656 739.379C370.535 734.394 333.447 729.154 296.397 723.669C286.537 722.244 276.669 720.884 266.792 719.584C251.071 717.524 246.209 719.069 234.704 706.874C220.588 685.669 222.307 645.259 244.336 629.734Z" fill="#F3DCB3"/>
<path d="M234.704 706.874C220.588 685.669 222.307 645.259 244.336 629.734C244.78 631.799 244.882 633.094 246.801 634.184C248.236 635.004 249.654 635.449 251.289 635.654C262.987 637.129 274.796 638.394 286.473 640.014L426.767 658.819L498.759 668.669C515.975 671.074 531.78 673.619 549.075 675.009C530.16 688.104 530.615 712.949 532.575 733.494C533.785 746.224 528.7 747.769 541.155 757.644C536.4 757.449 529.35 756.309 524.5 755.659L496.069 751.744L407.656 739.379C370.535 734.394 333.447 729.154 296.397 723.669C286.537 722.244 276.669 720.884 266.792 719.584C251.071 717.524 246.209 719.069 234.704 706.874Z" fill="#3890C2"/>
<path d="M277.721 654.006C287.946 653.456 287.299 660.791 284.371 667.946C280.425 677.586 281.95 687.616 283.169 697.586C283.619 701.271 282.556 703.096 279.284 704.631C276.745 704.586 273.01 704.626 271.625 702.011C265.401 690.251 266.409 662.426 277.721 654.006Z" fill="#523117"/>
<path d="M493.706 678.83C502.764 679.11 499.279 687.675 497.04 692.905C492.548 703.185 492.662 713.85 494.001 724.78C494.798 731.29 495.97 733.67 489.399 736.495C482.605 735.035 481.615 727.655 481.168 721.7C480.248 709.45 482.416 686.255 493.706 678.83Z" fill="#523117"/>
<path d="M244.336 629.734C254.547 623.509 273.706 622.039 286.06 619.949C289.664 624.449 293.042 627.574 298.847 629.114C310.082 632.084 322.634 633.249 334.193 634.784L383.648 641.489L538.07 661.989C545.605 662.979 591.045 669.024 595.495 671.399C588.105 673.584 580.64 675.514 573.115 677.194C566.865 678.579 554.625 680.634 549.315 683.259C534.18 690.749 532.975 717.489 536.62 731.799C538.17 737.894 542.005 741.994 547.695 744.329C554.875 746.294 584.905 739.494 593.305 737.899C610.18 734.689 627.08 731.614 644 728.679C705.05 717.914 767.825 707.199 828.635 695.614L827.65 690.624C835.675 691.744 847.015 690.439 850.125 698.754C849.635 701.099 848.63 703.769 846.465 705.069C841.375 708.129 789.685 716.099 780.625 717.709L642.705 742.179L586.2 752.244C575.43 754.169 551.21 759.724 541.155 757.644C528.7 747.769 533.785 746.224 532.575 733.494C530.615 712.949 530.16 688.104 549.075 675.009C531.78 673.619 515.975 671.074 498.759 668.669L426.767 658.819L286.473 640.014C274.796 638.394 262.987 637.129 251.289 635.654C249.654 635.449 248.236 635.004 246.801 634.184C244.882 633.094 244.78 631.799 244.336 629.734Z" fill="#317FA6"/>
<path d="M617.774 673.605C627.829 675.525 644.434 671.095 654.749 669.095L697.914 660.92L834.194 635.295C830.824 640.665 827.924 645.515 826.734 651.865C807.069 654.62 786.314 658.795 766.649 662.31L657.159 682.23L595.534 693.4C585.079 695.285 574.224 697.05 563.844 699.31C560.099 700.125 556.219 701.71 554.069 704.945C546.764 715.96 546.509 731.91 547.694 744.33C542.004 741.995 538.169 737.895 536.619 731.8C532.974 717.49 534.179 690.75 549.314 683.26C554.624 680.635 566.864 678.58 573.114 677.195C580.639 675.515 588.104 673.585 595.494 671.4C603.024 671.64 610.179 673.475 617.774 673.605Z" fill="#E2C596"/>
<path d="M866.031 703.744C868.911 707.019 870.976 711.154 870.616 715.634C870.366 719.004 868.706 722.109 866.051 724.194C862.526 726.944 857.621 727.659 853.271 728.559C850.311 735.164 848.086 741.719 847.396 748.974C845.946 760.274 846.116 769.699 848.171 780.944C848.731 784.004 850.296 788.719 850.656 790.844C856.176 791.809 864.696 791.999 868.221 796.954C870.036 799.504 870.486 803.584 869.761 806.569C869.216 808.829 867.616 811.404 865.581 812.609C859.021 816.494 803.366 826.649 791.721 829.069C744.756 838.944 697.716 848.479 650.606 857.664C627.016 862.344 599.446 868.559 575.996 872.179C572.081 872.799 568.101 872.869 564.166 872.379C558.916 869.509 553.971 866.139 550.641 861.074C535.751 838.449 537.266 789.874 560.446 773.464C574.091 765.684 580.911 764.999 596.186 761.864L638.841 753.239L799.731 719.584L841.006 710.934C846.921 709.669 862.021 707.764 866.031 703.744Z" fill="#A72E21"/>
<path d="M847.394 748.975C845.944 760.275 846.114 769.7 848.169 780.945C848.729 784.005 850.294 788.72 850.654 790.845C851.149 792.355 851.924 793.895 851.479 795.3C847.209 796.875 827.139 800.525 821.824 801.585L757.934 814.395L631.914 839.7C620.404 841.88 608.919 844.15 597.449 846.515C590.794 847.905 579.779 850.56 573.409 851.3C573.179 851.005 572.794 850.56 572.789 850.18C572.574 835.67 571.664 816.04 580.739 803.94C586.069 801.405 599.634 799.135 605.959 797.84L644.174 790.1L797.549 759.54C803.279 758.405 845.234 750.87 847.394 748.975Z" fill="#F3DCB3"/>
<path d="M573.411 851.301C562.761 854.421 558.631 841.306 557.216 833.396C554.686 819.286 555.981 802.661 563.961 790.401C566.506 786.486 570.626 784.676 574.951 783.421C587.391 780.601 600.161 778.286 612.686 775.841L685.786 761.546L794.051 740.156C813.121 736.366 834.231 731.616 853.271 728.561C850.311 735.166 848.086 741.721 847.396 748.976C845.236 750.871 803.281 758.406 797.551 759.541L644.176 790.101L605.961 797.841C599.636 799.136 586.071 801.406 580.741 803.941C571.666 816.041 572.576 835.671 572.791 850.181C572.796 850.561 573.181 851.006 573.411 851.301Z" fill="#E2C596"/>
<path d="M850.124 698.756C856.644 699.516 860.379 700.011 866.029 703.746C862.019 707.766 846.919 709.671 841.004 710.936L799.729 719.586L638.839 753.241L596.184 761.866C580.909 765.001 574.089 765.686 560.444 773.466C558.364 772.901 547.899 772.126 544.999 771.796C535.504 770.676 526.029 769.381 516.579 767.916L318.302 738.686C288.985 734.326 259.722 730.396 230.564 724.991C218.238 722.706 214.498 721.291 203.977 714.781C211.507 711.591 226.521 708.266 234.703 706.876C246.208 719.071 251.07 717.526 266.791 719.586C276.668 720.886 286.536 722.246 296.396 723.671C333.446 729.156 370.534 734.396 407.655 739.381L496.068 751.746L524.499 755.661C529.349 756.311 536.399 757.451 541.154 757.646C551.209 759.726 575.429 754.171 586.199 752.246L642.704 742.181L780.624 717.711C789.684 716.101 841.374 708.131 846.464 705.071C848.629 703.771 849.634 701.101 850.124 698.756Z" fill="#D46134"/>
<path d="M235.138 823.604C232.943 817.454 229.739 810.174 228.271 804.214C224.705 789.734 225.146 763.534 231.564 749.924C236.165 740.174 254.316 740.744 245.091 761.219C239.707 773.174 242.534 801.574 247.71 813.384C249.309 817.684 251.332 821.999 252.732 826.284C246.86 825.434 240.995 824.544 235.138 823.604Z" fill="#D46134"/>
<path d="M492.466 862.414C491.206 857.709 487.629 853.109 485.978 848.229C480.57 832.764 480.207 815.489 482.763 799.529C483.784 793.159 486.201 781.769 494.404 782.634C503.44 783.584 502.94 789.074 501.075 795.234C495.782 812.694 495.731 832.659 502.67 849.614C503.7 852.154 508.57 862.664 508.66 864.374L508.16 864.709C503.6 864.319 497.128 863.129 492.466 862.414Z" fill="#D46134"/>
<path d="M858.831 526.93C865.376 528.175 869.211 533.43 867.806 540.195C866.301 547.465 857.526 548.145 851.461 549.19C848.761 555.57 846.126 561.705 845.276 568.675C844.591 577.395 844.156 601.82 849.851 608.51C858.646 608.83 869.751 607.83 868.676 620.39C867.761 631.1 842.611 633.565 834.196 635.295L697.916 660.92L654.751 669.095C644.436 671.095 627.831 675.525 617.776 673.605C613.581 669.745 607.871 667.945 604.506 662.395C591.396 640.775 592.161 598.08 613.591 581.665C616.516 579.425 619.886 578.02 622.826 576.02L623.661 575.44C623.436 575.58 654.301 569.945 656.861 569.46C676.021 565.96 695.151 562.285 714.246 558.435L833.811 535.56C839.041 534.52 857.826 532.4 861.051 529.055L861.021 528.325L858.831 526.93Z" fill="#719B54"/>
<path d="M630.269 653.626C620.744 644.236 620.394 624.331 626.879 613.241C631.554 605.236 648.044 604.011 656.749 602.421L693.904 595.611C738.384 587.426 782.849 579.631 827.404 571.906C833.364 570.876 839.339 569.821 845.274 568.676C844.589 577.396 844.154 601.821 849.849 608.511L850.349 610.561C847.744 613.216 649.584 648.721 630.269 653.626Z" fill="#F3DCB3"/>
<path d="M630.27 653.624C617.375 655.679 613.82 649.599 611.085 637.839C607.915 624.224 610.705 596.684 626.135 591.304C632.415 589.114 644.215 587.429 651.25 586.149L695.8 578.014L851.46 549.189C848.76 555.569 846.125 561.704 845.275 568.674C839.34 569.819 833.365 570.874 827.405 571.904C782.85 579.629 738.385 587.424 693.905 595.609L656.75 602.419C648.045 604.009 631.555 605.234 626.88 613.239C620.395 624.329 620.745 644.234 630.27 653.624Z" fill="#E2C596"/>
<path d="M383.818 564.624C411.431 581.334 450.727 576.649 479.886 567.204C484.485 565.714 495.091 561.214 499.211 561.549C509.301 562.374 519.906 563.974 530.001 565.319L570.121 570.489C587.956 572.914 605.571 575.639 623.661 575.439L622.826 576.019C619.886 578.019 616.516 579.424 613.591 581.664C592.161 598.079 591.396 640.774 604.506 662.394C607.871 667.944 613.581 669.744 617.776 673.604C610.181 673.474 603.026 671.639 595.496 671.399C591.046 669.024 545.606 662.979 538.071 661.989L383.648 641.489L334.194 634.784C322.634 633.249 310.082 632.084 298.847 629.114C293.042 627.574 289.664 624.449 286.06 619.949C278.347 608.369 277.981 594.864 279.161 581.539C279.548 582.579 279.446 583.039 280.235 583.209C293.004 585.994 312.573 581.389 324.867 581.424C325.471 578.479 326.653 572.794 328.495 570.634C335.347 562.614 341.982 568.154 341.951 577.214C354.989 574.634 370.984 568.949 383.818 564.624Z" fill="#7DAD61"/>
<path d="M324.866 581.424C325.47 578.479 326.652 572.794 328.494 570.634C335.346 562.614 341.981 568.154 341.95 577.214L341.805 577.704C338.741 588.234 337.505 601.464 341.227 612.029C343.964 619.794 340.306 629.179 332.227 624.869C322.64 619.754 322.567 591.429 324.866 581.424Z" fill="#523117"/>
<path d="M563.516 586.545C572.446 586.79 573.131 592.495 569.726 599.24C564.026 610.515 563.921 626.195 566.796 638.3C568.461 645.325 570.196 650.87 561.866 653.27C558.196 652.57 556.321 651.77 554.351 648.44C546.161 634.58 548.401 594.33 563.516 586.545Z" fill="#523117"/>
<path d="M176.551 403.1C199.58 389.566 247.079 384.725 273.04 390.992C306.989 399.189 320.585 433.199 330.402 462.764C346.678 511.781 347.474 527.951 308.147 563.456C298.853 564.831 292.209 565.521 282.832 565.876C266.868 566.011 256.917 565.386 241.284 561.846C236.862 560.741 232.606 559.131 228.311 557.606C227.184 557.136 226.065 556.651 224.954 556.151C202.27 545.861 189.883 531.521 181.11 508.221C170.326 479.586 164.985 449.903 171.635 419.516C172.749 414.43 174.436 407.721 176.551 403.1Z" fill="#835531"/>
<path d="M230.684 464.611C242.288 458.693 255.848 430.336 268.863 433.802C271.419 434.492 273.577 436.206 274.829 438.539C282.513 452.601 253.035 469.367 242.989 474.555C247.225 490.908 254.475 510.65 260.415 526.735C266.283 528.01 291.477 532.335 293.692 537.77C301.254 556.32 264.856 543.695 256.827 541.455C253.851 544.855 250.767 548.23 247.827 551.65C245.294 554.595 240.924 557.865 241.284 561.845C236.862 560.74 232.606 559.13 228.311 557.605C229.46 546.91 237.839 538.185 244.951 530.39C238.354 513.365 232.345 496.118 226.934 478.68C211.753 476.301 198.074 472.74 187.255 461.135C180.394 453.775 189.983 443.636 195.398 446.168C209.067 452.562 214.529 461.64 230.684 464.611Z" fill="#4E3420"/>
<path d="M815.945 521.336C822.435 523.836 841.12 524.571 848.47 524.671C852.21 526.021 855.335 526.031 858.83 526.931L861.02 528.326L861.05 529.056C857.825 532.401 839.04 534.521 833.81 535.561L714.245 558.436C695.15 562.286 676.02 565.961 656.86 569.461C654.3 569.946 623.435 575.581 623.66 575.441C605.57 575.641 587.955 572.916 570.12 570.491L530 565.321C519.905 563.976 509.3 562.376 499.21 561.551C495.09 561.216 484.484 565.716 479.885 567.206C450.726 576.651 411.43 581.336 383.817 564.626C370.983 568.951 354.988 574.636 341.95 577.216C341.981 568.156 335.346 562.616 328.494 570.636C326.652 572.796 325.47 578.481 324.866 581.426C312.572 581.391 293.003 585.996 280.234 583.211C279.445 583.041 279.547 582.581 279.16 581.541C280.034 576.246 281.26 571.011 282.833 565.876C292.21 565.521 298.853 564.831 308.148 563.456C338.949 561.046 356.663 556.386 385.568 546.121C388.258 553.801 391.582 556.266 399.308 558.386C404.593 559.836 411.17 561.481 416.542 562.326C436.406 566.951 477.913 555.941 499.346 551.941C523.505 548.891 552.315 543.931 571.55 528.011C580.06 527.691 601.89 529.676 610.935 530.781C613.795 536.131 616.17 539.831 622.355 541.796C623.695 542.216 625.065 542.551 626.45 542.791C630.91 543.401 634.08 543.801 638.615 543.186C639.73 543.501 640.94 544.536 641.98 545.111C643.715 546.066 645.425 546.746 647.4 547.026C662.87 549.226 720.565 542.521 736.215 538.221C765.4 535.746 788.585 532.561 815.945 521.336Z" fill="#678E4D"/>
<path d="M675.714 463.965C711.029 463.678 737.669 489.477 737.749 524.94C737.759 529.41 737.244 533.87 736.214 538.22C720.564 542.52 662.869 549.225 647.399 547.025C645.424 546.745 643.714 546.065 641.979 545.11C640.939 544.535 639.729 543.5 638.614 543.185C634.079 543.8 630.909 543.4 626.449 542.79C625.064 542.55 623.694 542.215 622.354 541.795C616.169 539.83 613.794 536.13 610.934 530.78C607.049 515.61 613.484 500.405 623.424 488.924C636.654 473.648 655.669 465.251 675.714 463.965Z" fill="#835531"/>
<path d="M626.449 542.789C620.339 529.299 634.394 496.061 649.159 500.769C652.654 504.194 649.384 508.269 647.349 511.414C642.884 518.314 640.379 523.569 639.624 531.834C639.424 534.044 639.539 542.199 638.614 543.184C634.079 543.799 630.909 543.399 626.449 542.789Z" fill="#4E3420"/>
<path d="M423.847 489.144C436.748 483.486 442.649 482.267 456.249 482.514C466.294 484.54 474.762 487.404 482.467 494.534C496.064 507.116 504.226 529.121 500.401 547.471C500.096 548.971 499.743 550.461 499.347 551.941C477.914 555.941 436.407 566.951 416.543 562.326C411.171 561.481 404.594 559.836 399.309 558.386C391.583 556.266 388.259 553.801 385.569 546.121C384.223 541.741 384.426 535.531 385.884 531.171C392.734 510.686 406.188 499.305 423.847 489.144Z" fill="#835531"/>
<path d="M399.307 558.386C393.844 540.986 418.078 509.421 426.29 522.381C426.918 528.476 410.573 537.461 416.541 562.326C411.17 561.481 404.593 559.836 399.307 558.386Z" fill="#4E3420"/>
<path d="M373.971 240.048C374.971 232.751 375.883 227.158 378.768 220.314C390.943 191.442 416.339 189.332 434.855 214.085C452.812 220.975 460.385 230.339 462.447 249.894C462.482 270.142 453.785 285.652 431.509 287.021C425.612 287.383 424.226 284.287 420.823 280.017C417.072 276.028 413.115 273.185 408.753 269.957C400.053 264.613 391.264 260.404 381.581 257.197C379.27 256.432 377.084 255.353 374.927 254.229C373.213 251.038 373.875 243.929 373.971 240.048Z" fill="#835531"/>
<path d="M408.752 269.956C411.389 259.379 407.802 242.533 417.596 234.033C422.093 230.131 426.279 240.699 426.922 243.82C428.984 253.821 430.321 273.673 420.822 280.016C417.071 276.027 413.114 273.184 408.752 269.956Z" fill="#4E3420"/>
<path d="M653.76 451.219C655.06 427.163 672.89 396.142 696.365 387.818C682.31 405.981 675.415 426.397 674.57 449.558C674.43 453.368 675.29 459.972 675.715 463.966C655.67 465.252 636.655 473.649 623.425 488.925C613.485 500.405 607.05 515.61 610.935 530.78C601.89 529.675 580.06 527.69 571.55 528.01C571.355 525.8 579.195 513.68 580.93 508.815C588.18 488.472 589.615 464.456 589.355 443.172C592.885 449.854 596.455 463.042 596.255 470.478C595.835 486.014 600.465 498.433 613.965 480.055C624.435 465.802 636.06 455.328 653.76 451.219Z" fill="#BC7832"/>
<path d="M243.293 289.106C235.149 270.234 231.893 255.219 242.095 235.797C250.775 219.272 271.834 210.202 288.718 220.276C299.773 226.873 304.679 238.349 307.757 250.375C292.204 257.546 279.064 262.936 264.728 272.869C261.843 274.868 244.436 288.825 243.293 289.106Z" fill="#835531"/>
<path d="M423.846 489.142C425.298 486.159 451.628 468.945 456.661 465.152C471.314 454.106 485.976 442.123 501.319 432.008C504.189 430.118 507.574 428.006 510.649 430.423C511.874 433.706 509.634 437.041 507.709 439.706C497.865 453.344 483.253 463.165 469.681 472.779C465.411 475.804 460.051 479.037 456.248 482.513C442.647 482.265 436.746 483.485 423.846 489.142Z" fill="#BC7832"/>
<path d="M853.29 482.223C867.63 496.779 874.73 518.205 848.47 524.67C841.12 524.57 822.435 523.835 815.945 521.335C832.135 510.435 842.62 498.215 853.29 482.223Z" fill="#835531"/>
<path d="M408.481 349.491C413.171 349.316 417.211 351.308 417.55 356.199C418.727 373.139 402.788 389.899 386.618 392.332C374.648 394.133 365.969 391.259 356.75 384.848C352.983 381.93 347.841 377.131 349.081 371.74C349.508 369.866 350.737 368.274 352.441 367.386C361.091 362.85 366.278 382.44 385.282 376.632C407.138 369.953 398.661 354.929 408.481 349.491Z" fill="#4E3420"/>
</g>
<defs>
<clipPath id="clip0_240_129">
<rect width="1024" height="1024" fill="white"/>
</clipPath>
</defs>
</svg>
