<svg width="1024" height="1024" viewBox="0 0 1024 1024" fill="none" xmlns="http://www.w3.org/2000/svg">
<path d="M419.175 201.178C425.297 196.557 432.553 192.993 439.071 189.208C460.17 176.957 482.085 169.564 506.86 173.45C537.68 178.283 618.66 196.802 643.015 212.337C655.875 220.017 661.55 244.48 653.215 256.889C648.52 263.884 640.195 269.209 632.255 271.526C637.53 273.979 642.715 279.104 647.315 282.843C657.715 267.344 668.775 252.326 688.495 248.546C718.915 242.713 738.885 270.142 744.11 296.814C747.675 315.077 740.945 333.8 730.65 348.633C725.465 356.091 719.085 362.64 711.765 368.016C715.725 375.706 719.505 387.397 722.145 395.708C732.805 429.29 741.93 463.411 751.125 497.421C751.68 499.485 752.65 503.349 753.495 505.119C769.28 506.594 789.495 511.354 804.96 515.324C869.4 531.864 941.23 555.069 985.915 607.034C1031.23 659.729 1007.38 717.789 958.775 756.709C929.69 779.994 897.55 796.764 862.965 810.829C715.265 869.764 533.87 878.529 377.066 864.809C286.921 855.214 193.724 837.754 113.291 794.299C91.5052 782.529 69.1407 766.659 53.6662 748.034C-14.558 665.919 83.2842 592.724 153.051 562.634C158.798 560.159 164.49 556.914 170.454 555.559C170.286 551.164 170.21 546.759 170.228 542.359C170.546 517.174 172.807 481.608 182.187 458.363C185.037 451.299 202.927 427.137 208.875 421.326C234.999 379.14 317.389 305.137 359.748 279.585C376.419 270.576 388.306 262.461 406.1 253.991C404.004 251.131 402.729 248.765 401.616 245.417C398.563 236.151 399.294 226.055 403.65 217.326C407.376 210.167 412.826 205.84 419.175 201.178Z" fill="#D08D46"/>
<path d="M753.495 505.119C769.28 506.594 789.495 511.354 804.96 515.324C869.4 531.864 941.23 555.069 985.915 607.034C1031.23 659.729 1007.38 717.789 958.775 756.709C929.69 779.994 897.55 796.764 862.965 810.829C715.265 869.764 533.87 878.529 377.066 864.809C286.921 855.214 193.724 837.754 113.291 794.299C91.5052 782.529 69.1407 766.659 53.6662 748.034C-14.558 665.919 83.2842 592.724 153.051 562.634C158.798 560.159 164.49 556.914 170.454 555.559C170.852 573.249 171.182 605.354 176.68 622.284C183.391 640.234 199.903 662.409 215.689 673.174C231.985 684.289 256.21 692.959 274.554 699.879C285.027 703.829 300.105 709.769 310.897 711.849C320.965 715.449 341.321 719.274 352.254 721.434C436.244 737.679 522.78 735.279 605.74 714.404C615.855 711.819 625.86 708.819 635.73 705.419C640.43 703.789 662.355 693.944 665.35 694.459C679.825 640.249 717.325 613.259 772.97 611.669C774.26 603.274 772.835 591.534 783.125 589.739C780.03 583.474 777.3 576.169 774.955 569.584C774.155 567.969 769.815 555.804 769.085 553.549C764.57 539.609 756.41 519.099 753.495 505.119Z" fill="#A3CFD3"/>
<path d="M176.68 622.285C183.391 640.235 199.902 662.41 215.689 673.175C231.985 684.29 256.21 692.96 274.554 699.88C285.026 703.83 300.104 709.77 310.897 711.85C320.964 715.45 341.32 719.275 352.253 721.435C436.244 737.68 522.779 735.28 605.739 714.405C615.854 711.82 625.859 708.82 635.729 705.42C640.429 703.79 662.354 693.945 665.349 694.46C663.719 701.545 661.819 715.375 663.034 722.325C667.959 750.53 705.984 760.455 729.339 765.67C748.124 769.865 765.249 770.215 783.729 769.975C779.089 774.71 737.839 782.25 729.049 783.955C596.189 809.29 459.752 809.39 326.859 784.255C274.711 774.285 180.928 750.82 145.84 704.565C138.909 695.43 136.397 681.875 138.719 670.455C142.814 650.31 160.064 633.355 176.68 622.285Z" fill="#85C1C9"/>
<path d="M665.349 694.46C679.824 640.25 717.324 613.26 772.969 611.67C771.449 621.86 769.399 633.865 768.339 643.98C776.019 647.66 783.369 647.37 791.409 644.975C791.899 640.015 792.014 636.39 792.084 631.44C814.014 640.29 828.344 643.85 851.184 637.025C871.504 654.2 883.024 673.39 885.379 700.31C886.509 713.25 885.114 721.345 879.584 732.74C860.244 758.555 814.899 769.61 783.729 769.975C765.249 770.215 748.124 769.865 729.339 765.67C705.984 760.455 667.959 750.53 663.034 722.325C661.819 715.375 663.719 701.545 665.349 694.46Z" fill="#F8C901"/>
<path d="M774.955 569.586C794.215 573.936 813.93 580.636 832.22 588.026C847.635 584.661 870.43 586.656 883.75 594.996C884.68 595.576 885.58 596.201 886.45 596.861C884.335 602.661 882.44 606.361 879.3 611.711C871.84 622.656 863.6 631.571 851.185 637.026C828.345 643.851 814.015 640.291 792.085 631.441C792.015 636.391 791.9 640.016 791.41 644.976C783.37 647.371 776.02 647.661 768.34 643.981C769.4 633.866 771.45 621.861 772.97 611.671C774.26 603.276 772.835 591.536 783.125 589.741C780.03 583.476 777.3 576.171 774.955 569.586Z" fill="#6AA128"/>
<path d="M774.955 569.586C794.215 573.936 813.93 580.636 832.22 588.026C816.215 594.216 809.445 600.561 799.135 614.006C797.865 613.711 795.835 613.421 794.49 613.186C794.85 608.136 796.01 602.411 796.415 596.676C792.505 590.786 789.76 590.106 783.125 589.741C780.03 583.476 777.3 576.171 774.955 569.586Z" fill="#85C1C9"/>
<path d="M794.49 613.186C795.835 613.421 797.865 613.711 799.135 614.006C797.265 616.811 793.97 623.806 792.225 627.166C792.92 622.411 793.59 617.921 794.49 613.186Z" fill="#F8C901"/>
<path d="M879.301 611.711C909.171 628.261 942.451 658.866 922.561 695.011C915.526 707.791 892.976 727.746 879.586 732.741C885.116 721.346 886.511 713.251 885.381 700.311C883.026 673.391 871.506 654.201 851.186 637.026C863.601 631.571 871.841 622.656 879.301 611.711Z" fill="#85C1C9"/>
<path d="M170.453 555.56C170.285 551.165 170.21 546.76 170.227 542.36C170.545 517.175 172.807 481.608 182.186 458.364C185.037 451.3 202.927 427.137 208.874 421.326C215.679 421.481 230.047 421.257 235.841 421.85C260.163 424.343 308.193 432.373 329.414 442.666C337.473 446.624 344.769 451.977 350.961 458.479C374.687 483.074 376.597 516.265 378.896 548.355C380.818 575.175 380.119 598.89 379.199 625.63C378.296 651.895 374.779 665.38 354.697 684.14C342.687 695.74 326.853 706.57 310.897 711.85C300.104 709.77 285.026 703.83 274.554 699.88C256.21 692.96 231.985 684.29 215.689 673.175C199.902 662.41 183.391 640.235 176.68 622.285C171.182 605.355 170.851 573.25 170.453 555.56Z" fill="#835531"/>
<path d="M198.773 490.449C210.196 490.838 224.59 519.774 232.318 527.994C238.312 534.369 239.385 535.964 247.149 540.949C254.791 539.104 265.651 530.589 272.7 526.344C283.012 520.134 293.586 512.049 305.178 508.369C319.41 503.844 323.471 522.239 316.545 531.284C310.19 539.769 299.601 544.079 290.005 547.564C279.435 551.394 268.517 554.519 257.593 556.849C255.008 583.539 257.634 611.074 256.788 637.369C265.89 644.384 276.362 651.614 285.76 658.364C290.356 661.939 303.395 668.944 303.319 674.154C303 695.904 279.562 676.534 273.914 672.419C265.255 666.084 256.641 659.689 248.075 653.229C239.129 658.654 207.835 682.274 209.028 657.094C209.324 650.844 232.084 641.469 237.996 637.674L237.895 553.339C221.802 542.034 186.601 522.919 191.403 498.541C192.174 494.628 195.435 492.221 198.773 490.449Z" fill="#4E3420"/>
<path d="M419.174 201.178C425.296 196.557 432.553 192.993 439.071 189.208C460.17 176.957 482.085 169.564 506.859 173.45C537.679 178.283 618.659 196.802 643.014 212.337C655.874 220.017 661.549 244.48 653.214 256.889C648.519 263.884 640.194 269.209 632.254 271.526C627.294 273.19 620.589 273.741 615.399 276.137C599.094 283.664 581.389 295.721 563.084 296.799C559.404 297.015 556.039 296.838 552.394 295.925C529.664 290.213 507.304 283.273 484.589 277.472C461.325 271.531 437.769 266.699 414.846 259.504C411.573 258.476 408.615 256.257 406.1 253.991C404.003 251.131 402.729 248.765 401.615 245.417C398.563 236.151 399.294 226.055 403.65 217.326C407.375 210.167 412.826 205.84 419.174 201.178Z" fill="#F8F7F7"/>
<path d="M643.014 212.338C655.874 220.017 661.549 244.481 653.214 256.889C648.519 263.885 640.194 269.209 632.254 271.526C627.294 273.19 620.589 273.741 615.399 276.137C599.094 283.664 581.389 295.721 563.084 296.799C559.404 297.016 556.039 296.839 552.394 295.926C529.664 290.213 507.304 283.274 484.589 277.473C461.325 271.531 437.769 266.699 414.846 259.504C411.573 258.477 408.615 256.258 406.1 253.992C404.003 251.132 402.729 248.765 401.615 245.417C398.563 236.152 399.294 226.056 403.65 217.327C417.195 219.912 434.293 227.011 448.522 230.611C484.485 239.713 520.944 248.597 556.549 258.943C570.284 239.67 603.104 228.781 624.384 220.495C629.374 218.551 638.794 215.024 643.014 212.338Z" fill="#DDDCD9"/>
<path d="M647.314 282.843C657.714 267.344 668.774 252.326 688.494 248.546C718.914 242.713 738.884 270.142 744.109 296.814C747.674 315.077 740.944 333.8 730.649 348.633C725.464 356.091 719.084 362.64 711.764 368.016C702.509 373.486 685.684 371.727 675.309 370.639C661.684 348.399 650.454 331.303 634.744 310.154C638.319 300.353 641.954 291.876 647.314 282.843Z" fill="#835531"/>
<path d="M588.999 438.574C589.624 438.53 590.254 438.522 590.879 438.549C597.594 438.771 601.599 443.989 600.584 450.413C598.964 460.679 588.799 471.76 581.169 478.041C557.559 497.478 519.534 494.775 500.149 470.763C496.253 465.625 491.347 459.922 493.562 453.04C495.488 447.052 504.354 443.301 509.149 448.295C512.049 451.315 513.344 455.263 516.089 458.499C519.984 463.112 525.074 466.562 530.799 468.471C547.374 474.243 565.774 468.624 576.299 454.58C581.114 448.182 581.224 442.166 588.999 438.574Z" fill="#4E3420"/>
<path d="M359.748 279.587C355.227 270.952 351.871 263.153 350.523 253.349C348.29 237.244 352.563 220.912 362.397 207.964C376.749 189.103 400.619 187.083 419.175 201.18C412.827 205.841 407.376 210.169 403.651 217.328C399.295 226.057 398.564 236.153 401.616 245.418C402.73 248.766 404.004 251.133 406.101 253.993C388.306 262.462 376.419 270.577 359.748 279.587Z" fill="#835531"/>
</svg>
