<svg width="1024" height="1024" viewBox="0 0 1024 1024" fill="none" xmlns="http://www.w3.org/2000/svg">
<g clip-path="url(#clip0_228_1752)">
<path d="M197.654 0H826.385C828.625 1.46327 841.245 2.23125 844.79 2.81357C925.6 16.0811 992.94 78.7965 1016.11 156.572C1018.31 163.915 1020.04 171.386 1021.31 178.943C1021.85 182.342 1022.77 195.211 1024 196.941V827.91C1022.8 829.765 1022.84 833.21 1022.6 835.5C1021.22 849.005 1018.38 860.815 1014.22 873.705C991.75 941.305 938.05 993.91 870.005 1014.99C861.22 1017.76 852.235 1019.83 843.13 1021.18C840.36 1021.6 827.93 1022.98 826.455 1024H197.63C194.78 1022.68 181.867 1021.5 177.992 1020.82C173.362 1019.99 169.472 1019.11 164.823 1017.95C91.6725 999.645 33.0628 945.03 9.64795 873.35C6.9408 864.995 4.76951 856.475 3.14736 847.84C2.44971 844.09 1.4737 829.47 0 827.475V196.63C1.65915 194.652 1.89368 183.79 2.42627 180.516C16.9494 91.262 91.551 15.9632 181.29 2.65823C184.38 2.20008 195.926 1.26382 197.654 0Z" fill="#FEF6E5"/>
<path d="M613.345 315.465C620.81 289.498 631.94 265.989 656.355 252.057C685.635 235.345 720.27 246.414 735.47 276.236C750 304.744 745.685 334.879 732.96 362.97L756.41 372.358C771.545 378.414 802.91 389.117 795.46 413.324C793.79 418.765 787.655 421.414 782.665 423.408L780.5 424.263L780.48 479.423C780.475 483.431 780.215 501.19 780.765 503.35L781.055 503.605C785.08 505.435 788.225 506.65 791.555 509.64C800.58 517.75 799.995 530.2 791.775 538.56C799.185 541.755 806.625 545.03 814.185 548.195C826.66 553.42 845.995 560.54 838.25 578.075C836.205 582.705 831.835 585.165 827.3 587.08C828.02 614.215 827.14 641.57 827.46 668.725C827.495 671.77 827.24 675.61 827.535 678.53C833.165 681.26 836.335 683.07 840.59 687.985C847.955 696.5 844.935 714.26 835.215 719.925C826.635 724.925 815.04 729.23 805.545 733.285L740.92 760.86L624.88 810.405L585.675 827.135C579.34 829.805 569.815 834.125 563.46 836.085C553.505 839.25 542.92 839.88 532.66 837.925C521.74 835.825 510.225 828.98 500.04 824.035L461.546 805.305L325.197 739.125L236.028 696.24L207.09 682.33C193.423 675.75 183.01 671.485 174.219 658.12C164.274 643.09 163.1 625.935 163.078 608.505C163.037 576.475 160.821 544.79 190.884 524.975C202.892 517.79 218.319 514.075 230.48 507.915C212.554 499.175 208.527 485.872 207.624 466.481C207.223 457.881 207.612 449.054 207.505 440.448C207.258 420.579 206.916 403.634 221.3 388.247C233.926 376.191 256.69 369.449 273.66 362.728C271.067 357.614 268.876 352.306 267.107 346.851C255.148 309.983 263.981 259.551 305.574 246.736C320.087 242.411 335.727 244.058 349.022 251.312C374.396 264.866 385.625 289.353 393.461 315.487C397.156 314.905 406.649 310.628 410.83 308.991L448.34 294.405C455.584 291.61 463.232 288.523 470.641 286.409C492.797 280.088 519.38 279.86 541.465 286.823C551.4 289.955 564.55 295.656 574.54 299.699L599.84 309.926C603.51 311.407 609.94 313.778 613.345 315.465Z" fill="#967CC2"/>
<path d="M613.345 315.465C620.81 289.498 631.94 265.989 656.355 252.057C685.635 235.345 720.27 246.414 735.47 276.236C750 304.744 745.685 334.879 732.96 362.97L756.41 372.358C771.545 378.414 802.91 389.117 795.46 413.324C793.79 418.765 787.655 421.414 782.665 423.408L780.5 424.263L611.52 492.991L572.795 508.8C563.27 512.68 541.25 520.725 534.33 526.625C526.925 519.3 502.86 510.37 492.521 505.925L431.415 479.539L285.079 416.306C264.607 407.34 241.179 397.746 221.301 388.247C233.927 376.191 256.691 369.449 273.661 362.728C271.068 357.614 268.876 352.306 267.108 346.851C255.148 309.983 263.982 259.551 305.574 246.736C320.088 242.411 335.728 244.058 349.022 251.312C374.397 264.866 385.626 289.353 393.462 315.487C397.157 314.905 406.649 310.628 410.83 308.991L448.341 294.405C455.585 291.61 463.233 288.523 470.642 286.409C492.797 280.088 519.38 279.86 541.465 286.823C551.4 289.955 564.55 295.656 574.54 299.699L599.84 309.926C603.51 311.407 609.94 313.778 613.345 315.465Z" fill="#B094D7"/>
<path d="M252.384 373.3C249.129 366.892 246.378 360.242 244.157 353.407C229.144 307.212 240.233 244.022 292.447 227.966C310.667 222.546 330.301 224.61 346.99 233.7C378.844 250.682 392.941 281.363 402.778 314.108C389.443 320.545 368.68 326.513 357.513 332.326C338.437 339.159 319.647 347.379 300.66 354.497C297.384 355.726 293.592 357.076 290.422 358.511C279.182 362.872 263.307 369.692 252.384 373.3Z" fill="#C19065"/>
<path d="M290.824 358.882C289.275 354.923 285.785 348.032 283.514 342.968C270.234 313.351 283.139 262.835 324.914 281.037C342.095 288.522 351.586 314.157 357.462 332.672C338.515 339.512 319.852 347.739 300.993 354.865C297.738 356.095 293.973 357.446 290.824 358.882Z" fill="#966843"/>
<path d="M593 308.926C601.833 278.323 615.003 250.618 643.892 234.199C678.538 214.504 719.52 227.549 737.505 262.694C754.698 296.291 749.592 331.805 734.536 364.911C729.158 363.396 703.629 352.867 698.168 350.409C678.703 342.564 655.47 332.952 636.059 326.005L593 308.926Z" fill="#C19065"/>
<path d="M636.373 326.467C639.57 306.218 659.7 268.748 685.483 274.577C720.627 282.521 712.64 327.554 698.526 350.92C679.048 343.059 655.798 333.428 636.373 326.467Z" fill="#966843"/>
<path d="M827.535 678.53C833.165 681.26 836.335 683.07 840.59 687.985C847.955 696.5 844.935 714.26 835.215 719.925C826.635 724.925 815.04 729.23 805.545 733.285L740.92 760.86L624.88 810.405L585.675 827.135C579.34 829.805 569.815 834.125 563.46 836.085C553.505 839.25 542.92 839.88 532.66 837.925C521.74 835.825 510.225 828.98 500.04 824.035L461.546 805.305L325.197 739.125L236.028 696.24L207.09 682.33C193.423 675.75 183.01 671.485 174.219 658.12C164.274 643.09 163.1 625.935 163.078 608.505C163.037 576.475 160.821 544.79 190.884 524.975C196.416 526.21 215.726 535.65 221.523 538.345L283.786 567.255L452.952 645.695L511.17 672.875C520.695 677.335 530.625 681.795 540.01 686.49C545.645 689.31 551.055 695.74 554.68 700.79C564.3 696.03 578.445 690.685 588.775 686.385L648.92 661.27L827.3 587.08C828.02 614.215 827.14 641.57 827.46 668.725C827.495 671.77 827.24 675.61 827.535 678.53Z" fill="#967CC2"/>
<path d="M554.68 700.79C564.3 696.03 578.445 690.685 588.775 686.385L648.92 661.27L827.3 587.08C828.02 614.215 827.14 641.57 827.46 668.725C827.495 671.77 827.24 675.61 827.535 678.53C827.505 684.4 828.365 691.54 823.765 695.995C819.64 699.985 739.585 732.81 727.17 738.12L618.65 784.34C597.885 793.21 576.855 802.175 555.735 811.025C524.715 824.02 531.615 769.285 531.07 752.24C530.41 731.555 535.845 712.28 554.68 700.79Z" fill="#F3E7D3"/>
<path d="M230.481 507.915L429.094 599.245L490.268 627.74C511.066 637.395 530.101 649.61 553.511 640.24C566.531 635.03 579.441 629.65 592.371 624.2L659.276 596.035L738.096 562.99C747.546 559.025 785.796 543.93 791.776 538.56C799.186 541.755 806.626 545.03 814.186 548.195C826.661 553.42 845.996 560.54 838.251 578.075C836.206 582.705 831.836 585.165 827.301 587.08L648.921 661.27L588.776 686.385C578.446 690.685 564.301 696.03 554.681 700.79C551.056 695.74 545.646 689.31 540.011 686.49C530.626 681.795 520.696 677.335 511.171 672.875L452.953 645.695L283.787 567.255L221.524 538.345C215.727 535.65 196.417 526.21 190.885 524.975C202.893 517.79 218.32 514.075 230.481 507.915Z" fill="#B094D7"/>
<path d="M534.33 526.625C541.25 520.725 563.27 512.68 572.795 508.8L611.52 492.99L780.5 424.262L780.48 479.422C780.475 483.431 780.215 501.19 780.765 503.35L781.055 503.605C778.29 509.905 784.54 517.065 773.91 521.665C759.64 527.835 745.275 533.81 730.93 539.82L643.46 576.415L577.15 604.3C565.985 609.005 553.875 615.05 542.38 618.6C539.285 619.555 535.965 619.71 532.865 618.68C529.08 617.43 526.58 614.515 524.96 610.965C519.095 598.135 520.1 553.185 525.385 539.975C527.415 534.89 530.46 530.49 534.33 526.625Z" fill="#F3E7D3"/>
</g>
<defs>
<clipPath id="clip0_228_1752">
<rect width="1024" height="1024" fill="white"/>
</clipPath>
</defs>
</svg>
